<?xml version="1.0" encoding="utf-8"?>
<!-- Generator: Adobe Illustrator 27.5.0, SVG Export Plug-In . SVG Version: 6.00 Build 0)  -->
<svg version="1.1" xmlns="http://www.w3.org/2000/svg" xmlns:xlink="http://www.w3.org/1999/xlink" x="0px" y="0px"
	 viewBox="0 0 500 500" style="enable-background:new 0 0 500 500;" xml:space="preserve">
<g id="Background_Complete">
	<g>
		<rect y="382.398" style="fill:#EBEBEB;" width="500" height="0.25"/>
		<rect x="322.527" y="401.208" style="fill:#EBEBEB;" width="8.693" height="0.25"/>
		<rect x="150.037" y="388.778" style="fill:#EBEBEB;" width="23.185" height="0.25"/>
		<rect x="402.099" y="394.141" style="fill:#EBEBEB;" width="56.67" height="0.25"/>
		<rect x="42.717" y="394.141" style="fill:#EBEBEB;" width="56.67" height="0.25"/>
		<path style="fill:#EBEBEB;" d="M237.014,337.8H43.915c-3.147,0-5.708-2.561-5.708-5.708V60.66c0-3.147,2.561-5.708,5.708-5.708
			h193.099c3.146,0,5.707,2.561,5.707,5.708v271.432C242.721,335.239,240.16,337.8,237.014,337.8z M43.915,55.203
			c-3.01,0-5.458,2.448-5.458,5.458v271.432c0,3.01,2.448,5.458,5.458,5.458h193.099c3.009,0,5.457-2.448,5.457-5.458V60.66
			c0-3.009-2.448-5.458-5.457-5.458H43.915z"/>
		<path style="fill:#EBEBEB;" d="M453.31,337.8H260.212c-3.147,0-5.707-2.561-5.707-5.708V60.66c0-3.147,2.561-5.708,5.707-5.708
			H453.31c3.148,0,5.708,2.561,5.708,5.708v271.432C459.019,335.239,456.458,337.8,453.31,337.8z M260.212,55.203
			c-3.009,0-5.457,2.448-5.457,5.458v271.432c0,3.01,2.448,5.458,5.457,5.458H453.31c3.01,0,5.458-2.448,5.458-5.458V60.66
			c0-3.009-2.448-5.458-5.458-5.458H260.212z"/>
	</g>
	<g>
		<g>
			<g>
				<g>
					
						<rect x="113.303" y="92.138" transform="matrix(-1 -1.224647e-16 1.224647e-16 -1 492.1244 328.5029)" style="fill:#E6E6E6;" width="265.517" height="144.228"/>
					
						<rect x="110.288" y="92.138" transform="matrix(-1 -1.224647e-16 1.224647e-16 -1 486.0932 328.5029)" style="fill:#F5F5F5;" width="265.517" height="144.228"/>
					
						<rect x="177.013" y="36.906" transform="matrix(-1.836970e-16 1 -1 -1.836970e-16 407.2982 -78.7952)" style="fill:#FFFFFF;" width="132.067" height="254.692"/>
					
						<rect x="50.807" y="163.112" transform="matrix(-1.836970e-16 1 -1 -1.836970e-16 281.0922 47.4107)" style="fill:#E6E6E6;" width="132.067" height="2.28"/>
					
						<rect x="112.527" y="198.993" transform="matrix(-1 -1.224647e-16 1.224647e-16 -1 486.0932 406.1497)" style="fill:#F5F5F5;" width="261.04" height="8.163"/>
					
						<rect x="112.527" y="129.66" transform="matrix(-1 -1.224647e-16 1.224647e-16 -1 486.0932 267.483)" style="fill:#F5F5F5;" width="261.04" height="8.163"/>
				</g>
				<g>
					<path style="fill:#E6E6E6;" d="M104.387,82.074h280.335c0.458,0,0.833,0.375,0.833,0.833l0,0c0,0.458-0.375,0.833-0.833,0.833
						H104.387c-0.458,0-0.833-0.375-0.833-0.833l0,0C103.553,82.449,103.928,82.074,104.387,82.074z"/>
					<path style="fill:#E6E6E6;" d="M99.387,82.907c0,2.301,1.866,4.167,4.167,4.167s4.167-1.866,4.167-4.167
						s-1.865-4.167-4.167-4.167S99.387,80.606,99.387,82.907z"/>
					<path style="fill:#E6E6E6;" d="M377.696,87.574L377.696,87.574c0.619,0,1.125-0.506,1.125-1.125v-2.417
						c0-0.619-0.506-1.125-1.125-1.125l0,0c-0.619,0-1.125,0.506-1.125,1.125v2.417C376.571,87.067,377.077,87.574,377.696,87.574z"
						/>
					<path style="fill:#E6E6E6;" d="M116.954,87.574L116.954,87.574c0.619,0,1.125-0.506,1.125-1.125v-2.417
						c0-0.619-0.506-1.125-1.125-1.125l0,0c-0.619,0-1.125,0.506-1.125,1.125v2.417C115.829,87.067,116.335,87.574,116.954,87.574z"
						/>
				</g>
			</g>
			
				<rect x="104.653" y="82.907" transform="matrix(-1 -1.224647e-16 1.224647e-16 -1 478.2192 196.0986)" style="opacity:0.5;fill:#E0E0E0;" width="268.914" height="30.285"/>
			<circle style="fill:#E6E6E6;" cx="364.295" cy="82.907" r="4.167"/>
		</g>
		<g>
			<g>
				<g>
					
						<rect x="295.889" y="268.354" transform="matrix(-1 -1.224647e-16 1.224647e-16 -1 608.8416 650.7523)" style="fill:#E6E6E6;" width="17.063" height="114.045"/>
					<polygon style="fill:#F0F0F0;" points="300.376,382.398 295.889,382.398 295.889,366.867 305.08,366.867 					"/>
					
						<rect x="434.426" y="268.354" transform="matrix(-1 -1.224647e-16 1.224647e-16 -1 885.9154 650.7523)" style="fill:#E6E6E6;" width="17.063" height="114.045"/>
					
						<rect x="295.889" y="268.354" transform="matrix(-1 -1.224647e-16 1.224647e-16 -1 734.231 641.222)" style="fill:#F0F0F0;" width="142.452" height="104.514"/>
					
						<rect x="299.37" y="272.986" transform="matrix(-1 -1.224647e-16 1.224647e-16 -1 734.231 574.634)" style="fill:#E6E6E6;" width="135.491" height="28.662"/>
					<path style="fill:#F0F0F0;" d="M326.251,281.893h78.714c4.378,0,8.563-3.536,11.573-9.779l0,0H314.678l0,0
						C317.689,278.357,321.874,281.893,326.251,281.893z"/>
					<polygon style="fill:#F0F0F0;" points="433.855,382.398 438.342,382.398 438.342,366.867 429.151,366.867 					"/>
					
						<rect x="299.37" y="306.28" transform="matrix(-1 -1.224647e-16 1.224647e-16 -1 734.231 641.2219)" style="fill:#E6E6E6;" width="135.491" height="28.662"/>
					<path style="fill:#F0F0F0;" d="M326.251,315.187h78.714c4.378,0,8.563-3.536,11.573-9.778l0,0H314.678l0,0
						C317.689,311.651,321.874,315.187,326.251,315.187z"/>
					
						<rect x="299.37" y="339.574" transform="matrix(-1 -1.224647e-16 1.224647e-16 -1 734.231 707.8099)" style="fill:#E6E6E6;" width="135.491" height="28.662"/>
					<path style="fill:#F0F0F0;" d="M326.251,348.481h78.714c4.378,0,8.563-3.536,11.573-9.778l0,0H314.678l0,0
						C317.689,344.945,321.874,348.481,326.251,348.481z"/>
				</g>
			</g>
			<g>
				<g>
					<g>
						<g>
							<path style="fill:#F5F5F5;" d="M399.218,211.176c-2.698-9.083,30.927-54.564,45.697-53.205
								c14.769,1.359-11.195,56.533-19.161,61.41C416.759,224.887,402.156,221.068,399.218,211.176z"/>
							<path style="fill:#F5F5F5;" d="M397.292,224.289c-1.298-4.638,22.21-12.186,31.55-6.715
								c9.341,5.471-9.737,19.559-15.034,18.918C407.827,235.769,398.706,229.34,397.292,224.289z"/>
							<path style="fill:#F5F5F5;" d="M425.846,220.126c3.258-6.093-20.687-41.729-33.443-42.382
								c-12.757-0.652,3.628,40.966,9.919,45.262C409.427,227.857,422.299,226.761,425.846,220.126z"/>
							<path style="fill:#EBEBEB;" d="M413.578,201.166l-0.051-0.001c-1.249-0.022-2.33,0.885-2.512,2.121
								c-2.774,18.843-3.107,37.837-0.995,56.765c0.138,1.242,1.187,2.186,2.436,2.208c0.017,0,0.034,0.001,0.051,0.001
								c1.501,0.026,2.671-1.273,2.509-2.766c-2.009-18.499-1.683-37.06,0.973-55.477
								C416.202,202.531,415.079,201.192,413.578,201.166z"/>
						</g>
						<path style="fill:#FAFAFA;" d="M411.751,268.354L411.751,268.354c8.836,0,16.29-5.209,18.103-12.25
							c0.48-1.863,1.026-3.712,1.887-5.475l0.139-0.284h-40.258l0.139,0.284c0.861,1.763,1.407,3.613,1.887,5.475
							C395.461,263.145,402.915,268.354,411.751,268.354z"/>
						<path style="fill:#F0F0F0;" d="M391.539,252.109h40.423c1.123,0,2.104-1.104,2.384-2.684l0,0
							c0.401-2.262-0.776-4.466-2.384-4.466h-40.423c-1.608,0-2.785,2.204-2.384,4.466l0,0
							C389.435,251.005,390.416,252.109,391.539,252.109z"/>
					</g>
				</g>
			</g>
		</g>
		<g>
			<g>
				<rect x="217.104" y="310.558" style="fill:#F0F0F0;" width="49.814" height="71.841"/>
				
					<rect x="68.964" y="310.558" transform="matrix(-1 -1.224647e-16 1.224647e-16 -1 286.0674 692.956)" style="fill:#F5F5F5;" width="148.14" height="71.841"/>
				
					<rect x="81.98" y="334.605" transform="matrix(-1 -1.224647e-16 1.224647e-16 -1 195.284 701.1038)" style="fill:#FAFAFA;" width="31.323" height="31.893"/>
				
					<rect x="124.5" y="334.605" transform="matrix(-1 -1.224647e-16 1.224647e-16 -1 280.3234 701.1038)" style="fill:#FAFAFA;" width="31.323" height="31.893"/>
				<rect x="68.443" y="318.2" style="opacity:0.7;fill:#E6E6E6;" width="198.474" height="4.095"/>
			</g>
			<g>
				<rect x="217.104" y="308.079" style="fill:#F0F0F0;" width="52.563" height="11.845"/>
				
					<rect x="66.215" y="308.079" transform="matrix(-1 -1.224647e-16 1.224647e-16 -1 283.3182 628.0034)" style="fill:#F5F5F5;" width="150.889" height="11.845"/>
			</g>
		</g>
		<path style="fill:#F0F0F0;" d="M108.9,287.913c0,0,0.948,20.166,37.3,20.166s37.3-20.166,37.3-20.166H108.9z"/>
		<path style="fill:#F0F0F0;" d="M108.9,274.552c0,0,0.948,20.166,37.3,20.166s37.3-20.166,37.3-20.166H108.9z"/>
	</g>
</g>
<g id="Background_Simple" style="display:none;">
	<g style="display:inline;">
		<path style="fill:#407BFF;" d="M97.912,167.361c-41.084,91.551,152.194,56.682,168.634,81.863
			c24.958,38.228-46.9,76.831-20.567,117.829c37.046,57.676,97.761,2.946,119.441-18.361c21.897-21.52,66.945-77.471,38.278-126.293
			c-43.786-74.569-94.117-22.379-139.327-52.062c-21.32-13.998,1.249-46.553-31.676-69.26
			C175.27,61.474,112.594,134.646,97.912,167.361z"/>
		<path style="opacity:0.9;fill:#FFFFFF;" d="M97.912,167.361c-41.084,91.551,152.194,56.682,168.634,81.863
			c24.958,38.228-46.9,76.831-20.567,117.829c37.046,57.676,97.761,2.946,119.441-18.361c21.897-21.52,66.945-77.471,38.278-126.293
			c-43.786-74.569-94.117-22.379-139.327-52.062c-21.32-13.998,1.249-46.553-31.676-69.26
			C175.27,61.474,112.594,134.646,97.912,167.361z"/>
	</g>
</g>
<g id="Shadow_1_">
	<ellipse id="_x3C_Path_x3E__51_" style="fill:#F5F5F5;" cx="250" cy="416.238" rx="193.889" ry="11.323"/>
</g>
<g id="Coins">
	<g>
		<g>
			<rect x="93.154" y="394.462" style="fill:#407BFF;" width="98.194" height="18.479"/>
			<rect x="93.154" y="394.462" style="opacity:0.2;" width="98.194" height="2.1"/>
			<rect x="100.341" y="394.462" style="opacity:0.2;" width="3.869" height="18.479"/>
			<rect x="109.225" y="394.462" style="opacity:0.2;" width="3.869" height="18.479"/>
			<rect x="118.108" y="394.462" style="opacity:0.2;" width="3.869" height="18.479"/>
			<rect x="126.991" y="394.462" style="opacity:0.2;" width="3.869" height="18.479"/>
			<rect x="135.874" y="394.462" style="opacity:0.2;" width="3.869" height="18.479"/>
			<rect x="144.758" y="394.462" style="opacity:0.2;" width="3.869" height="18.479"/>
			<rect x="153.641" y="394.462" style="opacity:0.2;" width="3.869" height="18.479"/>
			<rect x="162.525" y="394.462" style="opacity:0.2;" width="3.869" height="18.479"/>
			<rect x="171.408" y="394.462" style="opacity:0.2;" width="3.869" height="18.479"/>
			<rect x="180.291" y="394.462" style="opacity:0.2;" width="3.869" height="18.479"/>
		</g>
		<g>
			<rect x="89.156" y="375.983" style="fill:#407BFF;" width="98.194" height="18.479"/>
			<rect x="89.156" y="375.983" style="opacity:0.2;" width="98.194" height="2.1"/>
			<rect x="96.344" y="375.983" style="opacity:0.2;" width="3.869" height="18.479"/>
			<rect x="105.227" y="375.983" style="opacity:0.2;" width="3.869" height="18.479"/>
			<rect x="114.111" y="375.983" style="opacity:0.2;" width="3.869" height="18.479"/>
			<rect x="122.994" y="375.983" style="opacity:0.2;" width="3.869" height="18.479"/>
			<rect x="131.877" y="375.983" style="opacity:0.2;" width="3.869" height="18.479"/>
			<rect x="140.761" y="375.983" style="opacity:0.2;" width="3.869" height="18.479"/>
			<rect x="149.644" y="375.983" style="opacity:0.2;" width="3.869" height="18.479"/>
			<rect x="158.527" y="375.983" style="opacity:0.2;" width="3.869" height="18.479"/>
			<rect x="167.411" y="375.983" style="opacity:0.2;" width="3.869" height="18.479"/>
			<rect x="176.294" y="375.983" style="opacity:0.2;" width="3.869" height="18.479"/>
		</g>
		<g>
			<rect x="86.333" y="357.504" style="fill:#407BFF;" width="98.194" height="18.479"/>
			<rect x="86.333" y="357.504" style="opacity:0.2;" width="98.194" height="2.1"/>
			<rect x="93.521" y="357.504" style="opacity:0.2;" width="3.869" height="18.479"/>
			<rect x="102.404" y="357.504" style="opacity:0.2;" width="3.869" height="18.479"/>
			<rect x="111.288" y="357.504" style="opacity:0.2;" width="3.869" height="18.479"/>
			<rect x="120.171" y="357.504" style="opacity:0.2;" width="3.869" height="18.479"/>
			<rect x="129.054" y="357.504" style="opacity:0.2;" width="3.869" height="18.479"/>
			<rect x="137.938" y="357.504" style="opacity:0.2;" width="3.869" height="18.479"/>
			<rect x="146.821" y="357.504" style="opacity:0.2;" width="3.869" height="18.479"/>
			<rect x="155.704" y="357.504" style="opacity:0.2;" width="3.869" height="18.479"/>
			<rect x="164.588" y="357.504" style="opacity:0.2;" width="3.869" height="18.479"/>
			<rect x="173.471" y="357.504" style="opacity:0.2;" width="3.869" height="18.479"/>
		</g>
		<g>
			<rect x="90.775" y="339.026" style="fill:#407BFF;" width="98.194" height="18.479"/>
			<rect x="90.775" y="339.026" style="opacity:0.2;" width="98.194" height="2.1"/>
			<rect x="97.963" y="339.026" style="opacity:0.2;" width="3.869" height="18.479"/>
			<rect x="106.846" y="339.026" style="opacity:0.2;" width="3.869" height="18.479"/>
			<rect x="115.729" y="339.026" style="opacity:0.2;" width="3.869" height="18.479"/>
			<rect x="124.613" y="339.026" style="opacity:0.2;" width="3.869" height="18.479"/>
			<rect x="133.496" y="339.026" style="opacity:0.2;" width="3.869" height="18.479"/>
			<rect x="142.38" y="339.026" style="opacity:0.2;" width="3.869" height="18.479"/>
			<rect x="151.263" y="339.026" style="opacity:0.2;" width="3.869" height="18.479"/>
			<rect x="160.146" y="339.026" style="opacity:0.2;" width="3.869" height="18.479"/>
			<rect x="169.029" y="339.026" style="opacity:0.2;" width="3.869" height="18.479"/>
			<rect x="177.913" y="339.026" style="opacity:0.2;" width="3.869" height="18.479"/>
		</g>
		<g>
			
				<rect x="86.462" y="320.547" transform="matrix(-1 -1.224647e-16 1.224647e-16 -1 271.1181 659.5729)" style="fill:#407BFF;" width="98.194" height="18.479"/>
			
				<rect x="86.462" y="320.547" transform="matrix(-1 -1.224647e-16 1.224647e-16 -1 271.1181 643.1941)" style="opacity:0.2;" width="98.194" height="2.1"/>
			
				<rect x="173.6" y="320.547" transform="matrix(-1 -1.224647e-16 1.224647e-16 -1 351.0679 659.5729)" style="opacity:0.2;" width="3.869" height="18.479"/>
			
				<rect x="164.716" y="320.547" transform="matrix(-1 -1.224647e-16 1.224647e-16 -1 333.3012 659.5729)" style="opacity:0.2;" width="3.869" height="18.479"/>
			
				<rect x="155.833" y="320.547" transform="matrix(-1 -1.224647e-16 1.224647e-16 -1 315.5345 659.5729)" style="opacity:0.2;" width="3.869" height="18.479"/>
			
				<rect x="146.95" y="320.547" transform="matrix(-1 -1.224647e-16 1.224647e-16 -1 297.7679 659.5729)" style="opacity:0.2;" width="3.869" height="18.479"/>
			
				<rect x="138.066" y="320.547" transform="matrix(-1 -1.224647e-16 1.224647e-16 -1 280.0012 659.5729)" style="opacity:0.2;" width="3.869" height="18.479"/>
			
				<rect x="129.183" y="320.547" transform="matrix(-1 -1.224647e-16 1.224647e-16 -1 262.2345 659.5729)" style="opacity:0.2;" width="3.869" height="18.479"/>
			
				<rect x="120.3" y="320.547" transform="matrix(-1 -1.224647e-16 1.224647e-16 -1 244.4679 659.5729)" style="opacity:0.2;" width="3.869" height="18.479"/>
			
				<rect x="111.416" y="320.547" transform="matrix(-1 -1.224647e-16 1.224647e-16 -1 226.7011 659.5729)" style="opacity:0.2;" width="3.869" height="18.479"/>
			
				<rect x="102.533" y="320.547" transform="matrix(-1 -1.224647e-16 1.224647e-16 -1 208.9345 659.5729)" style="opacity:0.2;" width="3.869" height="18.479"/>
			
				<rect x="93.65" y="320.547" transform="matrix(-1 -1.224647e-16 1.224647e-16 -1 191.1679 659.5729)" style="opacity:0.2;" width="3.869" height="18.479"/>
		</g>
		<g>
			
				<rect x="90.459" y="302.068" transform="matrix(-1 -1.224647e-16 1.224647e-16 -1 279.1126 622.6155)" style="fill:#407BFF;" width="98.194" height="18.479"/>
			
				<rect x="90.459" y="302.068" transform="matrix(-1 -1.224647e-16 1.224647e-16 -1 279.1126 606.2367)" style="opacity:0.2;" width="98.194" height="2.1"/>
			
				<rect x="177.597" y="302.068" transform="matrix(-1 -1.224647e-16 1.224647e-16 -1 359.0623 622.6155)" style="opacity:0.2;" width="3.869" height="18.479"/>
			
				<rect x="168.714" y="302.068" transform="matrix(-1 -1.224647e-16 1.224647e-16 -1 341.2957 622.6155)" style="opacity:0.2;" width="3.869" height="18.479"/>
			
				<rect x="159.83" y="302.068" transform="matrix(-1 -1.224647e-16 1.224647e-16 -1 323.529 622.6155)" style="opacity:0.2;" width="3.869" height="18.479"/>
			
				<rect x="150.947" y="302.068" transform="matrix(-1 -1.224647e-16 1.224647e-16 -1 305.7623 622.6155)" style="opacity:0.2;" width="3.869" height="18.479"/>
			
				<rect x="142.064" y="302.068" transform="matrix(-1 -1.224647e-16 1.224647e-16 -1 287.9957 622.6155)" style="opacity:0.2;" width="3.869" height="18.479"/>
			
				<rect x="133.18" y="302.068" transform="matrix(-1 -1.224647e-16 1.224647e-16 -1 270.2289 622.6155)" style="opacity:0.2;" width="3.869" height="18.479"/>
			
				<rect x="124.297" y="302.068" transform="matrix(-1 -1.224647e-16 1.224647e-16 -1 252.4623 622.6155)" style="opacity:0.2;" width="3.869" height="18.479"/>
			
				<rect x="115.413" y="302.068" transform="matrix(-1 -1.224647e-16 1.224647e-16 -1 234.6957 622.6155)" style="opacity:0.2;" width="3.869" height="18.479"/>
			
				<rect x="106.53" y="302.068" transform="matrix(-1 -1.224647e-16 1.224647e-16 -1 216.9289 622.6155)" style="opacity:0.2;" width="3.869" height="18.479"/>
			
				<rect x="97.647" y="302.068" transform="matrix(-1 -1.224647e-16 1.224647e-16 -1 199.1623 622.6155)" style="opacity:0.2;" width="3.869" height="18.479"/>
		</g>
		<g>
			
				<rect x="93.282" y="283.59" transform="matrix(-1 -1.224647e-16 1.224647e-16 -1 284.7584 585.6581)" style="fill:#407BFF;" width="98.194" height="18.479"/>
			
				<rect x="93.282" y="283.59" transform="matrix(-1 -1.224647e-16 1.224647e-16 -1 284.7584 569.2794)" style="opacity:0.2;" width="98.194" height="2.1"/>
			
				<rect x="180.42" y="283.59" transform="matrix(-1 -1.224647e-16 1.224647e-16 -1 364.7083 585.6581)" style="opacity:0.2;" width="3.869" height="18.479"/>
			
				<rect x="171.536" y="283.59" transform="matrix(-1 -1.224647e-16 1.224647e-16 -1 346.9415 585.6581)" style="opacity:0.2;" width="3.869" height="18.479"/>
			
				<rect x="162.653" y="283.59" transform="matrix(-1 -1.224647e-16 1.224647e-16 -1 329.1749 585.6581)" style="opacity:0.2;" width="3.869" height="18.479"/>
			
				<rect x="153.77" y="283.59" transform="matrix(-1 -1.224647e-16 1.224647e-16 -1 311.4083 585.6581)" style="opacity:0.2;" width="3.869" height="18.479"/>
			
				<rect x="144.886" y="283.59" transform="matrix(-1 -1.224647e-16 1.224647e-16 -1 293.6415 585.6581)" style="opacity:0.2;" width="3.869" height="18.479"/>
			
				<rect x="136.003" y="283.59" transform="matrix(-1 -1.224647e-16 1.224647e-16 -1 275.8749 585.6581)" style="opacity:0.2;" width="3.869" height="18.479"/>
			
				<rect x="127.12" y="283.59" transform="matrix(-1 -1.224647e-16 1.224647e-16 -1 258.1082 585.6581)" style="opacity:0.2;" width="3.869" height="18.479"/>
			
				<rect x="118.236" y="283.59" transform="matrix(-1 -1.224647e-16 1.224647e-16 -1 240.3415 585.6581)" style="opacity:0.2;" width="3.869" height="18.479"/>
			
				<rect x="109.353" y="283.59" transform="matrix(-1 -1.224647e-16 1.224647e-16 -1 222.5749 585.6581)" style="opacity:0.2;" width="3.869" height="18.479"/>
			
				<rect x="100.47" y="283.59" transform="matrix(-1 -1.224647e-16 1.224647e-16 -1 204.8082 585.6581)" style="opacity:0.2;" width="3.869" height="18.479"/>
		</g>
		<g>
			
				<rect x="88.84" y="265.111" transform="matrix(-1 -1.224647e-16 1.224647e-16 -1 275.8748 548.7008)" style="fill:#407BFF;" width="98.194" height="18.479"/>
			
				<rect x="88.84" y="265.111" transform="matrix(-1 -1.224647e-16 1.224647e-16 -1 275.8748 532.3221)" style="opacity:0.2;" width="98.194" height="2.1"/>
			
				<rect x="175.978" y="265.111" transform="matrix(-1 -1.224647e-16 1.224647e-16 -1 355.8247 548.7008)" style="opacity:0.2;" width="3.869" height="18.479"/>
			
				<rect x="167.095" y="265.111" transform="matrix(-1 -1.224647e-16 1.224647e-16 -1 338.0579 548.7008)" style="opacity:0.2;" width="3.869" height="18.479"/>
			
				<rect x="158.211" y="265.111" transform="matrix(-1 -1.224647e-16 1.224647e-16 -1 320.2913 548.7008)" style="opacity:0.2;" width="3.869" height="18.479"/>
			
				<rect x="149.328" y="265.111" transform="matrix(-1 -1.224647e-16 1.224647e-16 -1 302.5247 548.7008)" style="opacity:0.2;" width="3.869" height="18.479"/>
			
				<rect x="140.445" y="265.111" transform="matrix(-1 -1.224647e-16 1.224647e-16 -1 284.7579 548.7008)" style="opacity:0.2;" width="3.869" height="18.479"/>
			
				<rect x="131.561" y="265.111" transform="matrix(-1 -1.224647e-16 1.224647e-16 -1 266.9913 548.7008)" style="opacity:0.2;" width="3.869" height="18.479"/>
			
				<rect x="122.678" y="265.111" transform="matrix(-1 -1.224647e-16 1.224647e-16 -1 249.2246 548.7008)" style="opacity:0.2;" width="3.869" height="18.479"/>
			
				<rect x="113.795" y="265.111" transform="matrix(-1 -1.224647e-16 1.224647e-16 -1 231.4579 548.7008)" style="opacity:0.2;" width="3.869" height="18.479"/>
			
				<rect x="104.911" y="265.111" transform="matrix(-1 -1.224647e-16 1.224647e-16 -1 213.6913 548.7008)" style="opacity:0.2;" width="3.869" height="18.479"/>
			
				<rect x="96.028" y="265.111" transform="matrix(-1 -1.224647e-16 1.224647e-16 -1 195.9246 548.7008)" style="opacity:0.2;" width="3.869" height="18.479"/>
		</g>
	</g>
</g>
<g id="Growth">
	<g>
		<g>
			<path style="fill:#407BFF;" d="M400.66,191.976l-39.159,6.713c-3.388,0.581-4.383,4.968-1.576,6.953l7.222,5.108l-44.262,62.576
				c-1.212,1.714-3.585,2.121-5.299,0.908l-65.064-46.03c-1.714-1.213-4.087-0.806-5.299,0.908L116.045,414.557h47.149
				l93.222-131.783c1.212-1.714,3.585-2.121,5.299-0.908l65.069,46.025c1.714,1.212,4.087,0.806,5.299-0.908l66.491-94.004
				l7.222,5.108c2.806,1.985,6.612-0.414,6.031-3.802l-6.712-39.159C404.755,193.027,402.76,191.616,400.66,191.976z"/>
			<path style="opacity:0.2;" d="M400.66,191.976l-39.159,6.713c-3.388,0.581-4.383,4.968-1.576,6.953l7.222,5.108l-44.262,62.576
				c-1.212,1.714-3.585,2.121-5.299,0.908l-65.064-46.03c-1.714-1.213-4.087-0.806-5.299,0.908L116.045,414.557h47.149
				l93.222-131.783c1.212-1.714,3.585-2.121,5.299-0.908l65.069,46.025c1.714,1.212,4.087,0.806,5.299-0.908l66.491-94.004
				l7.222,5.108c2.806,1.985,6.612-0.414,6.031-3.802l-6.712-39.159C404.755,193.027,402.76,191.616,400.66,191.976z"/>
		</g>
		<path style="opacity:0.2;fill:#FFFFFF;" d="M160.242,409.106h-33.182c-0.094,0-0.179-0.052-0.222-0.135
			c-0.043-0.083-0.036-0.183,0.018-0.259l121.523-171.798c0.625-0.884,1.557-1.471,2.623-1.654c1.062-0.183,2.139,0.06,3.024,0.686
			l65.066,46.031c0.774,0.548,1.718,0.76,2.651,0.601c0.935-0.16,1.751-0.675,2.299-1.45l50.703-71.682l-8.04-5.687
			c-0.082-0.058-0.122-0.161-0.1-0.259c0.022-0.099,0.103-0.174,0.202-0.191l32.957-5.649c0.066-0.011,0.132,0.004,0.186,0.042
			c0.054,0.038,0.091,0.096,0.102,0.162l5.648,32.957c0.018,0.1-0.027,0.2-0.112,0.254c-0.086,0.054-0.196,0.051-0.278-0.007
			l-8.04-5.687l-66.347,93.8c-0.625,0.884-1.557,1.471-2.623,1.654c-1.065,0.181-2.141-0.06-3.024-0.685l-65.068-46.025
			c-1.596-1.13-3.819-0.75-4.95,0.849l-94.813,134.029C160.399,409.067,160.323,409.106,160.242,409.106z M127.544,408.606h32.569
			l94.737-133.923c1.291-1.824,3.822-2.258,5.647-0.968l65.068,46.025c0.774,0.548,1.721,0.762,2.65,0.601
			c0.936-0.16,1.752-0.675,2.3-1.449l66.491-94.004c0.038-0.054,0.097-0.091,0.162-0.102c0.064-0.012,0.133,0.004,0.187,0.042
			l7.751,5.483l-5.504-32.116l-32.116,5.505l7.752,5.483c0.054,0.038,0.091,0.096,0.102,0.162c0.012,0.065-0.004,0.132-0.042,0.186
			l-50.848,71.886c-0.625,0.884-1.557,1.471-2.623,1.654c-1.067,0.183-2.14-0.061-3.024-0.686l-65.066-46.031
			c-0.775-0.549-1.719-0.761-2.651-0.601c-0.935,0.16-1.751,0.675-2.299,1.449L127.544,408.606z"/>
	</g>
</g>
<g id="Chart">
	<g>
		<g>
			<rect x="343.942" y="351.792" style="fill:#263238;" width="4.11" height="61.149"/>
			<rect x="379.898" y="318.472" style="fill:#263238;" width="4.11" height="94.469"/>
			<rect x="416.524" y="341.126" style="fill:#263238;" width="4.11" height="71.815"/>
		</g>
		<g>
			<rect x="315.126" y="351.792" style="fill:#407BFF;" width="28.816" height="61.149"/>
			<polygon style="opacity:0.2;fill:#FFFFFF;" points="315.126,351.792 315.126,388.048 329.534,351.792 			"/>
			<rect x="351.082" y="318.472" style="fill:#407BFF;" width="28.816" height="94.469"/>
			<polygon style="opacity:0.2;fill:#FFFFFF;" points="351.082,318.472 351.082,354.728 365.49,318.472 			"/>
			<rect x="387.707" y="341.126" style="fill:#407BFF;" width="28.816" height="71.815"/>
			<polygon style="opacity:0.2;fill:#FFFFFF;" points="387.707,341.126 387.707,373.397 402.116,341.126 			"/>
		</g>
	</g>
</g>
<g id="Character">
	<g>
		<polygon style="fill:#7F3E3B;" points="248.078,407.939 240.35,406.485 241.661,388.202 249.389,389.656 		"/>
		<polygon style="fill:#7F3E3B;" points="300.097,407.734 292.234,407.734 290.276,389.524 298.139,389.524 		"/>
		<path style="fill:#263238;" d="M291.587,406.824h9.587c0.322,0,0.6,0.223,0.669,0.537l1.553,6.99
			c0.161,0.725-0.409,1.411-1.151,1.398c-3.084-0.053-5.335-0.234-9.22-0.234c-2.39,0-9.598,0.248-12.898,0.248
			c-3.228,0-3.732-3.264-2.38-3.559c6.059-1.325,10.624-3.153,12.564-4.897C290.661,406.993,291.117,406.824,291.587,406.824z"/>
		<path style="fill:#263238;" d="M240.514,404.788l8.463,1.459c0.317,0.055,0.553,0.322,0.569,0.643l0.343,7.152
			c0.035,0.741-0.623,1.325-1.353,1.186c-3.044-0.578-7.424-1.518-11.261-2.179c-4.486-0.773-6.676-1.334-11.937-2.241
			c-3.181-0.549-2.483-4.028-1.102-4.09c6.291-0.281,8.512,0.678,14.307-1.649C239.173,404.817,239.846,404.672,240.514,404.788z"/>
		<path style="fill:#7F3E3B;" d="M267.436,167.094c-0.264,0.791-0.477,1.38-0.725,2.047c-0.236,0.65-0.497,1.281-0.757,1.913
			c-0.523,1.262-1.074,2.505-1.653,3.74c-1.146,2.475-2.45,4.883-3.891,7.252c-2.911,4.702-6.381,9.291-11.27,13.085
			c-1.258,0.915-2.555,1.805-4.024,2.538c-0.352,0.195-0.724,0.372-1.107,0.536c-0.395,0.171-0.721,0.33-1.173,0.503
			c-1.012,0.381-1.888,0.58-2.726,0.742c-1.665,0.3-3.133,0.358-4.575,0.39c-1.434,0.029-2.817-0.032-4.177-0.135
			c-5.434-0.417-10.535-1.398-15.667-2.836l0.785-5.852c4.985-0.189,10.07-0.344,14.835-0.764c1.189-0.117,2.355-0.257,3.463-0.421
			c1.098-0.169,2.173-0.394,2.993-0.664c0.404-0.127,0.759-0.273,0.925-0.38c0.33-0.199,0.772-0.389,1.147-0.653
			c0.786-0.462,1.551-1.092,2.31-1.731c1.515-1.33,2.966-2.923,4.288-4.718c1.345-1.771,2.588-3.705,3.739-5.73
			c1.173-2.01,2.226-4.129,3.25-6.268c0.506-1.073,0.99-2.159,1.446-3.251l0.671-1.634l0.603-1.538L267.436,167.094z"/>
		<g>
			<g>
				<path style="fill:#407BFF;" d="M263.652,157.872c14.349-0.013-1.42,30.985-1.42,30.985l-18.311-7.402
					c0,0,4.997-10.788,8.289-16.952C255.322,158.676,260.473,157.874,263.652,157.872z"/>
			</g>
			<g style="opacity:0.3;">
				<path style="fill:#FFFFFF;" d="M263.652,157.872c14.349-0.013-1.42,30.985-1.42,30.985l-18.311-7.402
					c0,0,4.997-10.788,8.289-16.952C255.322,158.676,260.473,157.874,263.652,157.872z"/>
			</g>
		</g>
		<path style="opacity:0.2;" d="M260.138,167.89c-5.25,3.687-8.901,10.539-9.941,16.1l10.461,4.24c1.9-2.84,3.75-6.19,5.79-9.13
			c0.56-1.53,1.11-3.14,1.59-4.77L260.138,167.89z"/>
		<path style="fill:#7F3E3B;" d="M220.96,191.719l-6.293-3.553l-4.82,9.035c0,0,4.33,0.827,8.393-0.213L220.96,191.719z"/>
		<polygon style="fill:#7F3E3B;" points="208.695,188.167 205.193,196.108 209.848,197.201 214.667,188.167 		"/>
		<g>
			<polygon style="opacity:0.2;" points="241.662,388.207 240.985,397.631 248.716,399.085 249.393,389.661 			"/>
			<polygon style="opacity:0.2;" points="298.142,389.529 290.275,389.529 291.288,398.916 299.155,398.916 			"/>
		</g>
		<g>
			<g>
				<path style="fill:#407BFF;" d="M302.782,161.3c-2.425,8.689-3.975,17.538-4.997,25.866c-0.743,6.094-1.191,11.908-1.467,17.182
					c-0.653,12.36-0.382,21.784-0.749,24.977c-6.149-0.426-29.321-2.038-41.955-2.922c-5.714-44.73,5.197-67.776,5.197-67.776
					s4.645-0.926,10.043-1.242c0.711-0.046,1.434-0.071,2.168-0.085c4.752-0.101,12.498,0.612,17.838,1.242
					c1.123,0.133,2.258,0.298,3.362,0.476C297.838,159.931,302.782,161.3,302.782,161.3z"/>
			</g>
			<g style="opacity:0.3;">
				<path style="fill:#FFFFFF;" d="M302.782,161.3c-2.425,8.689-3.975,17.538-4.997,25.866c-0.743,6.094-1.191,11.908-1.467,17.182
					c-0.653,12.36-0.382,21.784-0.749,24.977c-6.149-0.426-29.321-2.038-41.955-2.922c-5.714-44.73,5.197-67.776,5.197-67.776
					s4.645-0.926,10.043-1.242c0.711-0.046,1.434-0.071,2.168-0.085c4.752-0.101,12.498,0.612,17.838,1.242
					c1.123,0.133,2.258,0.298,3.362,0.476C297.838,159.931,302.782,161.3,302.782,161.3z"/>
			</g>
		</g>
		<path style="opacity:0.2;" d="M292.188,172.617c-0.023,7.031,1.917,12.973,5.194,18.181c0.117-1.197,0.256-2.406,0.404-3.628
			c0.56-4.578,1.282-9.318,2.239-14.106L292.188,172.617z"/>
		<path style="fill:#7F3E3B;" d="M288.491,138.335c-1.526,5.66-3.382,16.097,0.365,20.206c-3.155,2.826-7.695,5.101-14.132,4.511
			c-4.93-0.451-4.938-3.92-3.703-5.755c6.506-1.082,6.672-5.841,5.869-10.378L288.491,138.335z"/>
		<path style="fill:#263238;" d="M271.111,164.917c0.049,0.735,0.367,1.824,0.62,2.598c0.179,0.545,0.683,0.911,1.256,0.915
			c0.708,0.004,1.686,0.044,2.448,0.207c0.336,0.072,0.68,0.01,0.971-0.172c1.008-0.63,2.281-1.567,1.95-2.726
			c-0.389-1.361-2.732-2.592-2.732-2.592S271.639,164.139,271.111,164.917z"/>
		<path style="fill:#263238;" d="M273.222,167.511c-1.611,3.514-5.327,26.057-5.792,29.474c-0.464,3.416,1.107,8.905,3.286,13.281
			c2.326-2.987,3.817-7.13,4.105-11.794c0.288-4.663,0.569-30.4,0.569-30.4L273.222,167.511z"/>
		<path style="fill:#FFFFFF;" d="M275.625,163.146c0,0,2.5,2.035,3.625,4.479c2.535-0.194,13.695-5.097,12.112-8.875
			c-1.389-0.389-2.613-1.19-2.959-0.775C287.834,158.778,283.089,161.639,275.625,163.146z"/>
		<path style="fill:#FFFFFF;" d="M275.625,163.146c0,0-4.285,1.451-5.288,3.896c-2.585-1.153-3.984-6.345-1.711-9.752
			c1.438-0.117,2.802-0.834,3.063-0.362C272.094,157.825,270.98,160.206,275.625,163.146z"/>
		<path style="opacity:0.2;" d="M283.761,141.838l-6.866,5.077c0.194,1.074,0.327,2.159,0.329,3.204
			c2.469-0.183,6.015-2.632,6.453-5.174C283.896,143.678,283.927,142.447,283.761,141.838z"/>
		<path style="fill:#263238;" d="M271.827,120.116c-3.026,1.187-4.105,12.794,1.999,11.655
			C279.93,130.631,277.872,117.745,271.827,120.116z"/>
		<path style="fill:#7F3E3B;" d="M291.636,131.729c-2.444,7.411-3.498,11.874-8.32,14.739c-7.253,4.311-15.644-1.585-15.464-9.578
			c0.163-7.194,4.132-18.106,12.295-19.164C288.188,116.684,294.08,124.317,291.636,131.729z"/>
		<path style="fill:#263238;" d="M288.856,136.833c-3.105,0.056-5.661-9.359,0.617-11.985c-4.944-0.571-20.111,0.263-22.833-6.515
			c-2.722-6.778,7.833-7.833,11.417-5.278c-1.139-3.722,3.5-9.222,11.847-4.222s8.236,11.166,7.458,13
			c3.722,1,4.452,9.278,0.337,10.389c2.412,3.333,0.326,10.361-6.174,8.861c-0.22,4.083-4.774,2.293-4.497-0.84
			C287.307,137.111,288.856,136.833,288.856,136.833z"/>
		<path style="fill:#263238;" d="M274.996,138.643c0.001,0,0.003,0.001,0.004,0.001c3.113,0.798,5.086-0.971,5.168-1.046
			c0.082-0.075,0.087-0.201,0.012-0.283s-0.202-0.087-0.283-0.013c-0.019,0.017-1.903,1.696-4.798,0.954
			c-0.107-0.027-0.217,0.037-0.244,0.144C274.829,138.506,274.892,138.613,274.996,138.643z"/>
		<path style="fill:#7F3E3B;" d="M293.187,139.594c-1.524,1.451-3.576,2.062-5.304,1.992c-2.599-0.106-3.1-2.624-1.709-4.658
			c1.252-1.831,4.113-3.983,6.4-2.884C294.827,135.127,294.93,137.935,293.187,139.594z"/>
		<g>
			<path style="fill:#263238;" d="M238.38,394.579l12.955,3.075c0,0,4.61-50.654,8.56-78.486c1.047-7.38,2.663-17.757,5.131-28.817
				c3.115-13.935,7.022-29.003,10.221-40.803c3.375-12.427,5.945-21.223,5.945-21.223l-27.583-1.923
				c0,0-14.925,65.094-16.507,89.041C235.452,340.344,238.38,394.579,238.38,394.579z"/>
		</g>
		<path style="opacity:0.2;" d="M265.026,290.351c3.115-13.935,7.022-29.003,10.221-40.803l-2.862-6.164
			C265.542,251.514,263.702,276.68,265.026,290.351z"/>
		<g>
			<path style="fill:#263238;" d="M268.49,227.44c0,0,2.977,67.322,6.296,90.122c3.635,24.968,12.868,79.536,12.868,79.536h14.402
				c0,0-4-51.869-6.709-76.32c-3.086-27.852,0.215-91.448,0.215-91.448L268.49,227.44z"/>
		</g>
		<polygon style="fill:#407BFF;" points="285.93,397.409 302.89,397.409 303.639,392.343 284.917,392.013 		"/>
		<polygon style="fill:#407BFF;" points="237.547,395.451 252.318,398.23 253.986,393.081 237.145,389.887 		"/>
		<path style="fill:#263238;" d="M280.245,131.139c-0.161,0.613-0.617,1.025-1.018,0.92c-0.401-0.105-0.595-0.688-0.434-1.302
			c0.161-0.613,0.617-1.025,1.018-0.92C280.212,129.943,280.407,130.525,280.245,131.139z"/>
		<path style="fill:#263238;" d="M273.312,129.315c-0.161,0.613-0.617,1.025-1.018,0.92c-0.401-0.105-0.595-0.688-0.434-1.302
			c0.161-0.613,0.617-1.025,1.018-0.92S273.473,128.702,273.312,129.315z"/>
		<path style="fill:#630F0F;" d="M274.846,129.89c0,0-2.326,3.172-4.31,4.475c0.819,1.298,2.909,1.188,2.909,1.188L274.846,129.89z"
			/>
		<path style="fill:#263238;" d="M282.398,129.154c-0.135-0.011-0.26-0.095-0.315-0.23c-0.632-1.536-1.978-1.807-1.991-1.81
			c-0.202-0.038-0.335-0.233-0.297-0.436c0.038-0.201,0.225-0.339,0.435-0.297c0.071,0.014,1.758,0.353,2.541,2.259
			c0.078,0.19-0.013,0.408-0.203,0.486C282.513,129.149,282.454,129.158,282.398,129.154z"/>
		<path style="fill:#263238;" d="M270.378,125.836c-0.076-0.006-0.151-0.035-0.212-0.089c-0.156-0.134-0.174-0.369-0.04-0.525
			c1.342-1.563,3.048-1.36,3.122-1.348c0.204,0.027,0.347,0.214,0.32,0.418c-0.027,0.203-0.224,0.346-0.416,0.32l0,0
			c-0.059-0.003-1.387-0.156-2.461,1.094C270.61,125.801,270.493,125.845,270.378,125.836z"/>
		<path style="fill:#407BFF;" d="M288.987,408.198c-0.598,0-1.158-0.102-1.514-0.401c-0.281-0.237-0.411-0.568-0.385-0.984
			c0.02-0.31,0.184-0.457,0.319-0.526c0.873-0.449,3.406,1.112,3.693,1.291c0.064,0.04,0.097,0.114,0.085,0.188
			c-0.012,0.074-0.068,0.133-0.14,0.151C290.499,408.047,289.714,408.198,288.987,408.198z M287.819,406.57
			c-0.097,0-0.179,0.015-0.242,0.047c-0.05,0.026-0.109,0.074-0.117,0.219c-0.019,0.296,0.064,0.518,0.253,0.676
			c0.431,0.361,1.457,0.41,2.792,0.142C289.617,407.14,288.422,406.57,287.819,406.57z"/>
		<path style="fill:#407BFF;" d="M291.001,407.921c-0.031,0-0.061-0.007-0.089-0.022c-0.814-0.442-2.387-2.165-2.221-3.042
			c0.03-0.159,0.148-0.434,0.593-0.488c0.287-0.034,0.555,0.045,0.794,0.24c0.913,0.747,1.101,3.016,1.109,3.112
			c0.005,0.069-0.027,0.134-0.084,0.171C291.071,407.91,291.036,407.921,291.001,407.921z M289.413,404.733
			c-0.028,0-0.056,0.002-0.084,0.005c-0.242,0.03-0.263,0.141-0.272,0.188c-0.099,0.517,0.904,1.82,1.713,2.434
			c-0.092-0.663-0.343-1.986-0.929-2.464C289.707,404.787,289.567,404.733,289.413,404.733z"/>
		<path style="fill:#407BFF;" d="M239.575,405.725c-0.011,0.002-0.022,0.004-0.033,0.004c-1.292,0.033-3.566-0.045-4.285-0.944
			c-0.217-0.271-0.281-0.591-0.19-0.952c0.054-0.215,0.188-0.366,0.387-0.436c1.024-0.349,3.874,1.755,4.194,1.997
			c0.063,0.048,0.089,0.13,0.065,0.206C239.694,405.665,239.639,405.712,239.575,405.725z M235.629,403.735
			c-0.018,0.004-0.035,0.008-0.051,0.014c-0.081,0.028-0.126,0.081-0.149,0.176c-0.062,0.245-0.023,0.451,0.119,0.628
			c0.404,0.504,1.666,0.798,3.426,0.809C237.834,404.556,236.233,403.609,235.629,403.735z"/>
		<path style="fill:#407BFF;" d="M239.575,405.725c-0.048,0.01-0.1,0.001-0.142-0.028c-0.863-0.581-2.427-2.576-2.134-3.428
			c0.069-0.199,0.261-0.431,0.772-0.395c0.381,0.026,0.705,0.192,0.964,0.49c0.846,0.979,0.695,3.103,0.688,3.193
			c-0.005,0.066-0.045,0.124-0.104,0.154C239.604,405.718,239.59,405.722,239.575,405.725z M237.83,402.256
			c-0.142,0.03-0.168,0.105-0.178,0.135c-0.176,0.511,0.857,2.045,1.712,2.783c0.006-0.627-0.055-1.923-0.611-2.566
			c-0.193-0.224-0.425-0.342-0.707-0.362C237.954,402.24,237.883,402.244,237.83,402.256z"/>
		<g>
			<g>
				<g>
					<g>
						<path style="fill:#407BFF;" d="M267.105,196.421l-3.187-2.277l-52.296,73.209l3.187,2.277
							c20.216,14.441,48.312,9.76,62.753-10.456C292.003,238.957,287.321,210.862,267.105,196.421z"/>
						<path style="opacity:0.1;" d="M267.105,196.421l-3.187-2.277l-52.296,73.209l3.187,2.277
							c20.216,14.441,48.312,9.76,62.753-10.456C292.003,238.957,287.321,210.862,267.105,196.421z"/>
					</g>
					<path style="fill:#407BFF;" d="M189.646,236.469c-0.744-6.24-0.291-12.458,1.347-18.484l0.965,0.262
						c-1.603,5.901-2.048,11.992-1.319,18.103L189.646,236.469z"/>
					<path style="fill:#407BFF;" d="M192.683,248.541c-0.888-2.26-1.612-4.608-2.153-6.979l0.975-0.223
						c0.53,2.322,1.24,4.622,2.11,6.836L192.683,248.541z"/>
					
						<ellipse transform="matrix(0.9795 -0.2017 0.2017 0.9795 -41.6519 52.6956)" style="fill:#407BFF;" cx="237.77" cy="230.749" rx="44.985" ry="44.985"/>
					<g>
						<path style="fill:#FFFFFF;" d="M227.152,242.124l7.056-9.878c-2.452-3.081-3.76-6.026-3.924-8.838
							c-0.163-2.811,0.664-5.489,2.483-8.035c1.841-2.577,4.201-4.161,7.08-4.751c2.878-0.591,5.764-0.054,8.658,1.61l1.704-2.385
							l3.417,2.441l-1.704,2.385c2.286,2.084,3.665,4.357,4.137,6.818c0.472,2.462,0.072,5.018-1.204,7.667l-6.52-3.483
							c0.963-2.113,0.918-4.044-0.135-5.793l-6.585,9.218c3.042,3.717,4.667,6.876,4.871,9.479c0.206,2.604-0.601,5.178-2.42,7.724
							c-2.032,2.845-4.605,4.627-7.717,5.346c-3.113,0.72-6.36,0.205-9.738-1.545l-1.704,2.385l-3.418-2.441l1.62-2.268
							c-2.483-2.272-3.967-4.863-4.452-7.773c-0.486-2.91,0.142-6.081,1.883-9.514l6.624,3.735c-0.647,1.437-0.95,2.858-0.91,4.263
							C226.297,239.899,226.596,241.109,227.152,242.124z M244.834,217.371c-1.152-0.348-2.273-0.342-3.361,0.02
							c-1.09,0.361-1.959,0.998-2.61,1.91c-0.595,0.833-0.896,1.786-0.904,2.861c-0.008,1.075,0.342,2.197,1.049,3.367
							L244.834,217.371z M230.334,244.895c1.336,0.623,2.684,0.761,4.047,0.416c1.362-0.344,2.464-1.106,3.306-2.285
							c0.752-1.053,1.09-2.182,1.014-3.388c-0.077-1.206-0.676-2.518-1.799-3.938L230.334,244.895z"/>
					</g>
					<path style="opacity:0.1;" d="M274.214,226.953c-1.927-8.427-6.824-16.208-14.414-21.63
						c-16.467-11.763-39.353-7.949-51.116,8.517c-5.415,7.58-7.528,16.522-6.625,25.114c-2.263-9.867-0.452-20.619,5.896-29.505
						c11.763-16.467,34.646-20.282,51.113-8.52C267.961,207.282,273.162,216.876,274.214,226.953z"/>
				</g>
			</g>
			<path style="fill:#7F3E3B;" d="M303.791,165.603c0.987,1.271,1.825,2.41,2.668,3.645c0.841,1.212,1.659,2.435,2.463,3.668
				c1.587,2.48,3.096,5.018,4.496,7.634c1.423,2.602,2.701,5.315,3.882,8.099l0.862,2.107l0.775,2.17
				c0.267,0.713,0.482,1.472,0.709,2.216l0.337,1.119l0.084,0.28l0.154,0.606c0.108,0.433,0.148,0.841,0.196,1.263
				c0.121,1.647-0.176,3.026-0.544,4.157c-0.377,1.134-0.86,2.05-1.35,2.884c-0.992,1.653-2.068,2.945-3.157,4.158
				c-2.194,2.383-4.503,4.331-6.852,6.166c-4.724,3.639-9.617,6.663-14.826,9.392l-3.233-4.94
				c4.184-3.572,8.374-7.332,12.167-11.141c1.886-1.909,3.677-3.884,5.122-5.836c0.711-0.964,1.342-1.945,1.713-2.773
				c0.187-0.407,0.303-0.781,0.34-0.999c0.04-0.219-0.028-0.262-0.032-0.027c-0.012,0.074,0.009,0.126,0.013,0.22
				c0,0.029,0.028,0.115,0.019,0.093l-0.088-0.222l-0.351-0.887c-0.236-0.591-0.45-1.182-0.731-1.773l-0.792-1.772l-0.857-1.771
				c-1.186-2.352-2.459-4.693-3.834-7.008c-1.382-2.308-2.809-4.607-4.299-6.874c-0.738-1.137-1.49-2.268-2.259-3.381l-2.276-3.251
				L303.791,165.603z"/>
			<g>
				<g>
					<path style="fill:#407BFF;" d="M302.782,161.3c7.37,1.487,13.835,19.513,13.835,19.513l-15.381,12.529
						c0,0-5.04-9.163-9.072-18.004C287.773,165.708,293.855,159.499,302.782,161.3z"/>
				</g>
				<g style="opacity:0.3;">
					<path style="fill:#FFFFFF;" d="M302.782,161.3c7.37,1.487,13.835,19.513,13.835,19.513l-15.381,12.529
						c0,0-5.04-9.163-9.072-18.004C287.773,165.708,293.855,159.499,302.782,161.3z"/>
				</g>
			</g>
			<path style="fill:#7F3E3B;" d="M292.266,219.542l-7.936,0.864l5.153,8.622c0,0,6.593-2.236,5.798-5.861L292.266,219.542z"/>
			<polygon style="fill:#7F3E3B;" points="279.596,224.961 284.189,231.887 289.483,229.028 284.33,220.406 			"/>
		</g>
	</g>
</g>
</svg>
