<?xml version="1.0" encoding="utf-8"?>
<!-- Generator: Adobe Illustrator 27.5.0, SVG Export Plug-In . SVG Version: 6.00 Build 0)  -->
<svg version="1.1" xmlns="http://www.w3.org/2000/svg" xmlns:xlink="http://www.w3.org/1999/xlink" x="0px" y="0px"
	 viewBox="0 0 500 500" style="enable-background:new 0 0 500 500;" xml:space="preserve">
<g id="Background_Complete">
	<g>
		<rect y="382.398" style="fill:#EBEBEB;" width="500" height="0.25"/>
		<rect x="416.779" y="398.494" style="fill:#EBEBEB;" width="33.122" height="0.25"/>
		<rect x="292.749" y="398.619" style="fill:#EBEBEB;" width="8.693" height="0.25"/>
		<rect x="354.333" y="389.208" style="fill:#EBEBEB;" width="61.445" height="0.25"/>
		<rect x="212.454" y="395.111" style="fill:#EBEBEB;" width="12.693" height="0.25"/>
		<rect x="166.717" y="395.111" style="fill:#EBEBEB;" width="36.833" height="0.25"/>
		<rect x="52.459" y="390.888" style="fill:#EBEBEB;" width="25.43" height="0.25"/>
		<rect x="83.889" y="390.888" style="fill:#EBEBEB;" width="74.889" height="0.25"/>
		<path style="fill:#EBEBEB;" d="M237.014,337.8H43.915c-3.147,0-5.708-2.561-5.708-5.708V60.66c0-3.147,2.561-5.708,5.708-5.708
			h193.099c3.146,0,5.707,2.561,5.707,5.708v271.432C242.721,335.239,240.16,337.8,237.014,337.8z M43.915,55.203
			c-3.01,0-5.458,2.448-5.458,5.458v271.432c0,3.01,2.448,5.458,5.458,5.458h193.099c3.009,0,5.457-2.448,5.457-5.458V60.66
			c0-3.009-2.448-5.458-5.457-5.458H43.915z"/>
		<path style="fill:#EBEBEB;" d="M453.31,337.8H260.212c-3.147,0-5.707-2.561-5.707-5.708V60.66c0-3.147,2.561-5.708,5.707-5.708
			H453.31c3.148,0,5.708,2.561,5.708,5.708v271.432C459.019,335.239,456.458,337.8,453.31,337.8z M260.212,55.203
			c-3.009,0-5.457,2.448-5.457,5.458v271.432c0,3.01,2.448,5.458,5.457,5.458H453.31c3.01,0,5.458-2.448,5.458-5.458V60.66
			c0-3.009-2.448-5.458-5.458-5.458H260.212z"/>
	</g>
	<g>
		<g>
			<rect x="92.671" y="264.081" style="fill:#F5F5F5;" width="264.091" height="9.559"/>
			<path style="fill:#E6E6E6;" d="M259.778,264.084c0,0-2.511-6.4,6.889-7.639c14.444-1.904,18.556,7.639,18.556,7.639H259.778z"/>
			<g>
				<rect x="374.333" y="273.638" style="fill:#F5F5F5;" width="35.095" height="108.761"/>
				<rect x="102.479" y="273.638" style="fill:#F5F5F5;" width="35.095" height="108.761"/>
				<polygon style="fill:#E6E6E6;" points="409.428,286.667 374.333,280.152 374.333,273.638 409.428,273.638 				"/>
				<polygon style="fill:#E6E6E6;" points="137.574,286.667 102.479,280.152 102.479,273.638 137.574,273.638 				"/>
			</g>
			
				<rect x="356.762" y="264.081" transform="matrix(-1 -1.224647e-16 1.224647e-16 -1 767.9143 537.7216)" style="fill:#E6E6E6;" width="54.391" height="9.559"/>
		</g>
		<g>
			<g>
				<polygon style="fill:#F0F0F0;" points="384.866,245 276.236,245 282.76,181.67 391.39,181.67 				"/>
				<polygon style="fill:#EBEBEB;" points="346.282,245 325.488,245 330.233,264.081 351.028,264.081 				"/>
				<polygon style="fill:#E0E0E0;" points="300.731,261.651 362.274,261.651 363.509,264.084 294.009,264.084 				"/>
				<polygon style="fill:#E6E6E6;" points="381.181,241.906 280.558,241.906 286.445,184.764 387.068,184.764 				"/>
			</g>
			<polygon style="fill:#E6E6E6;" points="107.749,264.079 119.457,264.079 132.303,197.334 120.596,197.334 			"/>
			<polygon style="fill:#F0F0F0;" points="121.521,264.081 249.736,264.081 242.036,189.333 113.821,189.333 			"/>
			<polygon style="fill:#F5F5F5;" points="125.87,260.43 244.635,260.43 237.687,192.985 118.922,192.985 			"/>
		</g>
		<g>
			<rect x="274.837" y="86.333" style="fill:#F5F5F5;" width="152.383" height="66"/>
			
				<rect x="427.221" y="86.333" transform="matrix(-1 -1.224647e-16 1.224647e-16 -1 858.0581 238.6666)" style="fill:#F0F0F0;" width="3.617" height="66"/>
			
				<rect x="324.029" y="49.141" transform="matrix(-1.836970e-16 1 -1 -1.836970e-16 470.362 -231.696)" style="fill:#FAFAFA;" width="54" height="140.383"/>
			<path style="fill:#F0F0F0;" d="M421.22,119.333c-46.294-5.333-92.588,5.333-138.883,0c0-0.889,0-1.778,0-2.667
				c46.294,5.333,92.588-5.333,138.883,0C421.22,117.555,421.22,118.445,421.22,119.333z"/>
			
				<rect x="254.587" y="118.583" transform="matrix(-1.836970e-16 1 -1 -1.836970e-16 400.9204 -162.2545)" style="fill:#F0F0F0;" width="54" height="1.5"/>
		</g>
		<g>
			
				<ellipse transform="matrix(0.9732 -0.2298 0.2298 0.9732 -23.4704 28.6768)" style="fill:#F0F0F0;" cx="111.411" cy="115.127" rx="44.27" ry="44.27"/>
			
				<ellipse transform="matrix(0.9732 -0.2298 0.2298 0.9732 -23.4704 28.6768)" style="fill:#FFFFFF;" cx="111.411" cy="115.127" rx="41.102" ry="41.102"/>
			<path style="fill:#F5F5F5;" d="M86.786,129.27l-0.487-0.873c18.33-10.225,23.186-12.848,24.523-13.526
				c-0.995-2.646-8.689-19.521-13.9-30.828l0.908-0.418c14.358,31.153,14.186,31.455,14.021,31.747l-0.294,0.192l0.012,0.037
				C110.853,115.886,96.356,123.932,86.786,129.27z"/>
		</g>
		<g>
			<g>
				<path style="fill:#E0E0E0;" d="M313.058,319.759h-83.427c0.491,4.843,4.815,8.769,9.658,8.769h65.889
					C310.021,328.528,313.549,324.602,313.058,319.759z"/>
				<path style="fill:#E0E0E0;" d="M268.892,328.528h-65.889c-4.843,0-9.167-3.926-9.658-8.769l-9.368-92.434
					c-0.491-4.843,3.037-8.769,7.881-8.769h65.889c4.843,0,9.167,3.926,9.658,8.769l9.368,92.434
					C277.264,324.602,273.735,328.528,268.892,328.528z"/>
				<path style="fill:#E6E6E6;" d="M264.804,328.528h-65.889c-4.843,0-9.167-3.926-9.658-8.769l-9.368-92.434
					c-0.491-4.843,3.037-8.769,7.881-8.769h65.889c4.843,0,9.167,3.926,9.658,8.769l9.368,92.434
					C273.175,324.602,269.647,328.528,264.804,328.528z"/>
			</g>
			<g>
				<rect x="240.448" y="328.528" style="fill:#E0E0E0;" width="13.939" height="53.87"/>
				<polygon style="fill:#E0E0E0;" points="259.079,373.797 235.756,373.797 228.198,382.398 266.637,382.398 				"/>
			</g>
		</g>
	</g>
</g>
<g id="Background_Simple" style="display:none;">
	<g style="display:inline;">
		<path style="fill:#407BFF;" d="M268.174,157.577c-39.35-31.857-62.576-68.47-110.966-81.788
			c-40.474-11.139-60.843,6.674-71.645,39.059c-26.624,79.822,44.91,167.264,132.011,204.054
			c82.514,34.852,148.377,5.989,167.691-63.837c7.296-26.377,6.894-72.253-35.364-84.941
			C318.903,160.816,301.696,184.716,268.174,157.577z"/>
		<path style="opacity:0.9;fill:#FFFFFF;" d="M268.174,157.577c-39.35-31.857-62.576-68.47-110.966-81.788
			c-40.474-11.139-60.843,6.674-71.645,39.059c-26.624,79.822,44.91,167.264,132.011,204.054
			c82.514,34.852,148.377,5.989,167.691-63.837c7.296-26.377,6.894-72.253-35.364-84.941
			C318.903,160.816,301.696,184.716,268.174,157.577z"/>
	</g>
</g>
<g id="Shadow_1_">
	<ellipse id="_x3C_Path_x3E__343_" style="fill:#F5F5F5;" cx="245" cy="416.238" rx="193.889" ry="11.323"/>
</g>
<g id="Character_1_">
	<g>
		<polygon style="fill:#CF7A64;" points="224.803,402.734 217.074,400.568 220.032,382.093 227.762,384.259 		"/>
		<polygon style="fill:#CF7A64;" points="278.12,408.042 270.093,408.042 269.543,389.454 277.569,389.454 		"/>
		<path style="fill:#263238;" d="M269.284,407.113h9.341c0.328,0,0.603,0.228,0.661,0.548l1.293,7.135
			c0.134,0.74-0.476,1.44-1.234,1.427c-3.146-0.054-4.992-0.239-8.957-0.239c-2.44,0-9.807,0.254-13.177,0.254
			c-3.295,0-3.673-3.331-2.281-3.633c6.24-1.353,10.977-3.219,13.03-4.998C268.33,407.285,268.803,407.113,269.284,407.113z"/>
		<path style="fill:#263238;" d="M216.822,399.561l8.515,2.08c0.319,0.078,0.541,0.367,0.534,0.695l-0.153,7.307
			c-0.016,0.757-0.728,1.305-1.46,1.113c-3.059-0.803-7.454-2.067-11.315-3.01c-4.514-1.103-4.678-1.305-9.972-2.598
			c-3.201-0.782-3.299-4.235-1.888-4.201c6.426,0.156,7.646,0.725,13.711-1.237C215.454,399.497,216.149,399.397,216.822,399.561z"
			/>
		<path style="fill:#CF7A64;" d="M258.046,171.041c-5.094,3.15-10.188,5.969-15.495,8.617c-2.636,1.334-5.329,2.585-8.056,3.79
			c-1.359,0.609-2.741,1.192-4.136,1.749c-0.69,0.288-1.407,0.548-2.109,0.823l-1.058,0.406c-0.54,0.208-1.235,0.434-1.9,0.576
			c-1.359,0.299-2.857,0.329-4.227,0.078c-1.376-0.247-2.604-0.745-3.641-1.322c-2.077-1.177-3.493-2.607-4.676-4
			c-2.314-2.824-3.766-5.692-5.047-8.556c-2.49-5.755-4.007-11.481-5.064-17.478l5.819-1.57c1.074,2.523,2.202,5.167,3.441,7.655
			c1.212,2.511,2.494,4.965,3.884,7.246c1.376,2.265,2.906,4.419,4.462,5.912c0.757,0.743,1.537,1.27,2.029,1.439
			c0.245,0.089,0.396,0.085,0.45,0.064c0.058-0.019,0.034-0.046,0.082-0.085c0.04-0.029,0.028-0.037,0.16-0.1l0.936-0.451
			c0.624-0.305,1.247-0.589,1.87-0.911l3.738-1.903c2.489-1.299,4.971-2.642,7.452-4.01c4.934-2.742,9.941-5.581,14.78-8.372
			L258.046,171.041z"/>
		<path style="fill:#407BFF;" d="M262.948,168.669c-3.077,7.03-16.886,10.616-16.886,10.616l-7.996-12.655
			c0,0,6.055-6.316,14.108-8.347C262.044,155.793,266.311,160.985,262.948,168.669z"/>
		<path style="opacity:0.2;" d="M255.234,167.039c-5.263,2.236-8.498,6.169-9.173,12.245c0,0,10.826-2.811,15.436-8.332
			C261.204,169.611,259.176,166.474,255.234,167.039z"/>
		<path style="fill:#CF7A64;" d="M205.448,159.468l-6.486-3.871l4.055-6.773c0,0,7.619,2.198,6.271,7.886L205.448,159.468z"/>
		<polygon style="fill:#CF7A64;" points="195.923,150.517 196.695,145.505 203.016,148.824 198.962,155.597 		"/>
		<polygon style="opacity:0.2;" points="220.033,382.099 218.507,391.621 226.239,393.788 227.765,384.265 		"/>
		<polygon style="opacity:0.2;" points="277.572,389.459 269.542,389.459 269.829,399.04 277.859,399.04 		"/>
		<path style="fill:#407BFF;" d="M297.721,167.81c-8.969,28.627-9.161,58.231-10.266,64.404c-6.241-0.823-29.745-3.965-42.557-5.68
			c-2.543-39.826,6.585-62.243,9.058-67.502c0.358-0.761,1.078-1.274,1.914-1.361c1.169-0.122,3.031-0.29,5.228-0.386
			c1.18-0.051,2.45-0.083,3.77-0.075c0.73-0.001,1.47,0.019,2.22,0.048c4.84,0.204,12.692,1.435,18.093,2.419
			c1.131,0.209,2.281,0.448,3.391,0.696c1.031,0.238,2.041,0.487,2.991,0.736c1.085,0.283,2.107,0.568,3.028,0.835
			C297.099,162.671,298.502,165.317,297.721,167.81z"/>
		<g>
			<path style="fill:#FFFFFF;" d="M266.202,193.4l-3.565-0.381c-0.754-0.081-1.461,0.521-1.58,1.343l-0.093,0.643
				c-0.119,0.823,0.395,1.555,1.149,1.635l3.564,0.381c0.754,0.081,1.462-0.521,1.581-1.344l0.093-0.643
				C267.47,194.213,266.956,193.481,266.202,193.4z"/>
			<path style="fill:#FFFFFF;" d="M269.492,186.074c-1.533-3.486-2.008-10.173-2.008-10.173l-1.092-0.117
				c0,0-2.369,6.383-4.854,9.439c-0.129,0.159-0.214,0.342-0.244,0.547l-0.351,2.423c-0.048,0.332,0.051,0.654,0.27,0.875
				c0.47,0.475,1.271,1.409,1.466,2.423c0.084,0.433,0.368,0.775,0.776,0.819l1.077,0.115l1.076,0.115
				c0.409,0.044,0.782-0.228,0.986-0.63c0.478-0.942,1.522-1.679,2.114-2.04c0.275-0.168,0.463-0.46,0.511-0.792l0.352-2.424
				C269.602,186.45,269.572,186.255,269.492,186.074z"/>
			<path style="fill:#FFFFFF;" d="M280.39,173.835c-0.266-0.028-0.517,0.128-0.647,0.372l-11.789-1.26l0.063-0.434l-1.262-0.135
				l-0.063,0.434l-11.745-1.256c-0.056-0.264-0.256-0.468-0.521-0.497c-0.348-0.037-0.676,0.242-0.732,0.622
				c-0.055,0.38,0.183,0.719,0.532,0.757c0.265,0.028,0.517-0.128,0.647-0.371l9.282,0.992c-4.269,0.943-7.853,4.646-8.816,9.433
				l-0.43-0.046l-0.2,1.378l1.263,0.135l0.2-1.378l-0.365-0.039c1.107-5.43,5.75-9.376,10.807-9.185l-0.058,0.399l1.262,0.135
				l0.058-0.399c4.956,0.879,8.331,5.683,7.853,11.18l-0.321-0.034l-0.2,1.378l1.263,0.135l0.2-1.378l-0.474-0.051
				c0.433-4.844-1.984-9.189-5.853-11.002l9.326,0.997c0.057,0.263,0.256,0.468,0.521,0.496c0.348,0.037,0.676-0.242,0.731-0.621
				C280.977,174.212,280.738,173.872,280.39,173.835z"/>
		</g>
		<path style="opacity:0.2;" d="M295.542,175.398c-1.219,4.671-2.239,9.314-3.074,13.81c-5.357-3.93-3.996-14.125-3.996-14.125
			L295.542,175.398z"/>
		<path style="fill:#CF7A64;" d="M286.017,139.194c-1.919,5.668-4.482,16.18-0.929,20.608c-3.584,2.722-8.204,5.803-15.148,5.122
			c-6.944-0.68-5.101-5.273-2.941-7.538c6.697-0.683,7.173-5.521,6.647-10.194L286.017,139.194z"/>
		<path style="opacity:0.2;" d="M280.973,142.458l-7.322,4.73c0.128,1.107,0.194,2.22,0.129,3.285
			c2.527-0.027,6.297-2.294,6.907-4.855C280.991,144.341,281.103,143.089,280.973,142.458z"/>
		<path style="fill:#263238;" d="M271.25,118.111c-3.976,2.613-2.929,13.461,0.017,14.271
			C274.214,133.193,278.044,113.647,271.25,118.111z"/>
		<path style="fill:#CF7A64;" d="M290.29,132.529c-2.854,7.437-4.147,11.935-9.203,14.622c-7.606,4.041-15.873-2.381-15.299-10.521
			c0.517-7.327,5.098-18.259,13.472-18.939C287.511,117.021,293.144,125.092,290.29,132.529z"/>
		<path style="fill:#263238;" d="M288.179,138.226c-3.137,1.191-6.899,0.096-5.512-1.518c3.167-3.686,2.116-7.875,6.333-8.976
			c-3.389,0-5.837-1.308-10.046-5.149c-3.424-3.125-10.306,1.12-11.398-4.25c-0.574-2.823-2.889-3.861-2.889-3.861
			s3.034-1.711,4.961,1.234c0.913,1.395,3.581-1.748,6.622-2.873c3.48-1.287,6.777-0.73,8.75,1.792
			c2.581,3.298,5.734,5.744,8.917,5.417c4.458-0.458,7.542,2.75,4.667,6.218C303.292,129.583,295.524,138.911,288.179,138.226z"/>
		<path style="fill:#263238;" d="M297.222,126.347c0,0,6.611,0.278,4.611-5.5C303.778,124.347,304.278,127.403,297.222,126.347z"/>
		<path style="fill:#CF7A64;" d="M291.268,140.222c-1.314,1.503-3.157,2.27-4.741,2.367c-2.383,0.146-2.981-2.165-1.822-4.203
			c1.044-1.834,3.541-4.121,5.694-3.306C292.521,135.881,292.77,138.503,291.268,140.222z"/>
		<path style="fill:#263238;" d="M216.111,389.025l13.089,3.661c0,0,11.048-47.097,14.963-71.801
			c1.192-7.515,4.933-17.229,8.159-28.338c4.071-13.996,9.021-29.094,13.04-40.909c4.238-12.443,7.366-21.385,7.366-21.385
			l-27.83-3.721c0,0-17.915,61.856-20.545,86.212C221.614,338.07,216.111,389.025,216.111,389.025z"/>
		<path style="opacity:0.2;" d="M252.322,292.547c4.071-13.996,9.021-29.094,13.04-40.909l-2.519-6.464
			C255.35,253.016,251.854,278.535,252.322,292.547z"/>
		<path style="fill:#263238;" d="M258.157,228.306c0,0,0.443,69.15,2.356,92.591c2.095,25.67,5.629,76.288,5.629,76.288h14.702
			c0,0,1.219-46.699,0.552-71.802c-0.759-28.595,6.058-93.169,6.058-93.169L258.157,228.306z"/>
		<polygon style="fill:#407BFF;" points="265.286,397.503 282.597,397.503 283.197,392.331 263.884,391.995 		"/>
		<polygon style="fill:#407BFF;" points="214.382,388.869 229.978,393.238 231.389,388.199 214.03,383.05 		"/>
		<path style="fill:#263238;" d="M278.119,131.026c-0.194,0.618-0.679,1.015-1.083,0.888c-0.404-0.127-0.573-0.731-0.379-1.348
			c0.194-0.618,0.679-1.015,1.083-0.888C278.144,129.805,278.313,130.409,278.119,131.026z"/>
		<path style="fill:#263238;" d="M271.139,128.828c-0.194,0.618-0.679,1.015-1.083,0.888c-0.404-0.127-0.573-0.731-0.379-1.348
			c0.195-0.618,0.679-1.015,1.083-0.888C271.164,127.607,271.333,128.21,271.139,128.828z"/>
		<path style="fill:#BA4D3C;" d="M273.261,129.834c0,0-2.526,3.12-4.613,4.352c0.771,1.364,2.776,1.483,2.776,1.483L273.261,129.834
			z"/>
		<path style="fill:#263238;" d="M273.506,138.141c2.449,0.423,4.052-0.864,4.126-0.925c0.081-0.067,0.093-0.186,0.026-0.267
			s-0.186-0.093-0.267-0.027c-0.018,0.015-1.888,1.507-4.591,0.656c-0.1-0.031-0.207,0.024-0.238,0.124
			c-0.031,0.1,0.024,0.207,0.124,0.238C272.968,138.03,273.242,138.095,273.506,138.141z"/>
		<path style="fill:#263238;" d="M281.481,129.2c0.062,0.011,0.128,0.006,0.192-0.017c0.198-0.071,0.301-0.288,0.23-0.486
			c-0.706-1.981-2.409-2.41-2.481-2.427c-0.205-0.049-0.409,0.077-0.458,0.281c-0.049,0.204,0.076,0.408,0.279,0.458l0,0
			c0.056,0.014,1.38,0.362,1.944,1.943C281.235,129.087,281.35,129.177,281.481,129.2z"/>
		<path style="fill:#263238;" d="M268.888,125.48c0.121,0.021,0.25-0.017,0.341-0.113c1.153-1.22,2.505-1.005,2.562-0.995
			c0.206,0.035,0.403-0.103,0.44-0.309c0.036-0.206-0.1-0.402-0.305-0.44c-0.075-0.012-1.804-0.307-3.249,1.221
			c-0.144,0.152-0.137,0.393,0.015,0.537C268.748,125.435,268.816,125.467,268.888,125.48z"/>
		<g>
			<path style="fill:#407BFF;" d="M266.571,408.515c0.742,0,1.549-0.154,2.112-0.289c0.075-0.018,0.134-0.079,0.149-0.154
				c0.015-0.076-0.016-0.151-0.079-0.192c-0.285-0.183-2.809-1.773-3.715-1.317c-0.141,0.071-0.315,0.221-0.348,0.538
				c-0.044,0.425,0.074,0.763,0.352,1.005C265.393,408.411,265.96,408.515,266.571,408.515z M268.143,407.96
				c-1.374,0.273-2.42,0.224-2.844-0.145c-0.186-0.162-0.261-0.387-0.23-0.69c0.015-0.148,0.077-0.197,0.129-0.223
				C265.669,406.665,267.116,407.351,268.143,407.96z"/>
			<path style="fill:#407BFF;" d="M268.639,408.232c0.036,0,0.073-0.01,0.105-0.031c0.06-0.038,0.096-0.105,0.093-0.174
				c-0.004-0.098-0.101-2.414-1.002-3.176c-0.235-0.198-0.504-0.281-0.8-0.245c0,0,0,0,0,0c-0.457,0.056-0.588,0.336-0.625,0.498
				c-0.206,0.895,1.327,2.653,2.139,3.104C268.577,408.225,268.608,408.232,268.639,408.232z M267.152,404.979
				c0.156,0,0.298,0.055,0.43,0.167c0.578,0.488,0.779,1.838,0.845,2.515c-0.8-0.627-1.768-1.956-1.646-2.484
				c0.011-0.048,0.037-0.161,0.285-0.192l0,0C267.095,404.98,267.124,404.979,267.152,404.979z"/>
			<path style="fill:#407BFF;" d="M215.791,400.451c0.07-0.007,0.132-0.052,0.159-0.119c0.03-0.075,0.009-0.161-0.052-0.214
				c-0.31-0.27-3.056-2.624-4.132-2.328c-0.208,0.057-0.355,0.201-0.425,0.417v0c-0.118,0.361-0.075,0.692,0.127,0.983
				c0.67,0.966,2.98,1.205,4.297,1.261C215.774,400.452,215.783,400.452,215.791,400.451z M211.942,398.144
				c0.638-0.06,2.179,1.003,3.272,1.895c-1.792-0.134-3.057-0.522-3.433-1.065c-0.132-0.191-0.158-0.403-0.078-0.648
				c0.031-0.095,0.08-0.145,0.165-0.169C211.891,398.151,211.915,398.146,211.942,398.144z"/>
			<path style="fill:#407BFF;" d="M215.791,400.451c0.018-0.002,0.036-0.006,0.053-0.013c0.063-0.025,0.107-0.082,0.117-0.149
				c0.013-0.091,0.316-2.243-0.477-3.299c-0.242-0.322-0.56-0.513-0.947-0.567l0,0c-0.521-0.072-0.73,0.149-0.814,0.348
				c-0.358,0.847,1.095,2.989,1.933,3.641C215.695,400.442,215.744,400.456,215.791,400.451z M214.287,396.792
				c0.052-0.005,0.117-0.003,0.198,0.008c0,0,0,0,0,0c0.286,0.04,0.514,0.177,0.695,0.418c0.521,0.694,0.492,2.018,0.442,2.656
				c-0.82-0.812-1.763-2.447-1.549-2.955C214.087,396.888,214.121,396.807,214.287,396.792z M214.512,396.611l-0.005,0.001
				L214.512,396.611z"/>
		</g>
		<g>
			<path style="fill:#CF7A64;" d="M303.574,177.816c1.324,4.279,2.368,8.5,3.296,12.863c0.436,2.184,0.878,4.373,1.197,6.637
				c0.321,2.279,0.639,4.533,0.677,7.168c0.009,0.664-0.002,1.373-0.057,2.157c-0.037,0.421-0.077,0.834-0.158,1.326
				c-0.09,0.524-0.216,1.049-0.384,1.559c-0.658,2.072-1.954,3.764-3.261,4.915c-2.663,2.312-5.3,3.167-7.753,3.827
				c-2.471,0.613-4.844,0.884-7.185,0.976c-2.359,0.089-4.588,0.014-6.99-0.293l-0.128-6.025c3.896-0.927,8.036-1.994,11.281-3.536
				c1.603-0.738,2.999-1.721,3.466-2.414c0.235-0.349,0.183-0.506,0.129-0.512l-0.043-0.02c-0.012-0.042-0.014-0.169-0.019-0.286
				c-0.018-0.295-0.046-0.665-0.096-1.078c-0.208-1.674-0.587-3.688-1.029-5.653c-0.453-1.981-0.925-4.009-1.45-6.031l-3.182-12.197
				L303.574,177.816z"/>
			<path style="fill:#407BFF;" d="M296.245,162.816c4.06,2.421,8.631,16.872,8.631,16.872l-12.893,6.492
				c0,0-2.646-6.49-4.548-11.814C283.801,164.191,288.261,158.054,296.245,162.816z"/>
			<path style="fill:#CF7A64;" d="M285.051,213.361l-7.354-1.364l0.69,6.779c0,0,7.343,2.089,7.601-1.691L285.051,213.361z"/>
			<polygon style="fill:#CF7A64;" points="271.505,215.239 274.556,220.167 278.386,218.776 277.696,211.997 			"/>
		</g>
	</g>
</g>
<g id="Icons">
	<g>
		<g style="opacity:0.3;">
			<path style="fill:#407BFF;" d="M102.52,209.16c-0.031,0-0.063-0.003-0.094-0.009c-0.271-0.052-0.449-0.313-0.397-0.585
				c0.22-1.152,0.452-2.3,0.698-3.442c0.058-0.269,0.327-0.438,0.594-0.384c0.27,0.059,0.442,0.324,0.384,0.595
				c-0.244,1.135-0.475,2.274-0.693,3.419C102.965,208.993,102.755,209.16,102.52,209.16z"/>
			<path style="fill:#407BFF;" d="M104.864,198.857c-0.042,0-0.085-0.005-0.128-0.017c-0.267-0.071-0.426-0.345-0.356-0.611
				c0.604-2.279,1.272-4.574,1.983-6.821c0.084-0.263,0.365-0.407,0.628-0.325c0.263,0.083,0.409,0.364,0.326,0.628
				c-0.707,2.23-1.369,4.511-1.969,6.774C105.287,198.71,105.085,198.857,104.864,198.857z M109.136,185.365
				c-0.058,0-0.116-0.01-0.173-0.031c-0.259-0.096-0.392-0.383-0.295-0.643c0.816-2.207,1.697-4.427,2.619-6.598
				c0.108-0.255,0.403-0.372,0.656-0.265c0.254,0.107,0.373,0.401,0.265,0.655c-0.916,2.156-1.791,4.361-2.602,6.555
				C109.531,185.24,109.339,185.365,109.136,185.365z M114.665,172.345c-0.073,0-0.146-0.016-0.217-0.05
				c-0.248-0.12-0.353-0.419-0.233-0.667c1.022-2.122,2.109-4.248,3.23-6.318c0.131-0.243,0.436-0.333,0.678-0.201
				c0.243,0.131,0.333,0.435,0.201,0.678c-1.113,2.057-2.193,4.168-3.209,6.275C115.03,172.24,114.851,172.345,114.665,172.345z
				 M375.95,155.681c-0.163,0-0.323-0.08-0.419-0.228c-1.276-1.961-2.614-3.915-3.977-5.809c-0.161-0.225-0.11-0.537,0.114-0.698
				c0.222-0.161,0.536-0.11,0.698,0.114c1.371,1.906,2.718,3.873,4.002,5.848c0.15,0.231,0.085,0.541-0.146,0.691
				C376.139,155.654,376.044,155.681,375.95,155.681z M148.115,127.155c-0.135,0-0.269-0.054-0.367-0.16
				c-0.188-0.203-0.175-0.52,0.027-0.707c1.724-1.593,3.513-3.17,5.316-4.688c0.212-0.177,0.527-0.149,0.705,0.061
				c0.178,0.212,0.15,0.527-0.061,0.705c-1.792,1.507-3.568,3.074-5.28,4.656C148.358,127.111,148.236,127.155,148.115,127.155z
				 M158.921,118.066c-0.15,0-0.299-0.067-0.397-0.196c-0.168-0.22-0.126-0.533,0.094-0.701c1.877-1.435,3.805-2.837,5.729-4.168
				c0.226-0.158,0.538-0.102,0.695,0.127c0.157,0.227,0.101,0.538-0.127,0.695c-1.911,1.322-3.825,2.715-5.69,4.141
				C159.134,118.033,159.028,118.066,158.921,118.066z M170.529,110.028c-0.166,0-0.329-0.083-0.424-0.235
				c-0.146-0.233-0.075-0.542,0.159-0.688c1.992-1.246,4.042-2.461,6.092-3.611c0.243-0.137,0.547-0.05,0.681,0.19
				c0.136,0.241,0.05,0.546-0.191,0.681c-2.037,1.143-4.073,2.35-6.053,3.588C170.711,110.004,170.619,110.028,170.529,110.028z
				 M325.188,107.451c-0.085,0-0.171-0.021-0.25-0.067c-2.02-1.171-4.098-2.311-6.177-3.389c-0.245-0.128-0.341-0.43-0.214-0.675
				c0.129-0.245,0.429-0.34,0.675-0.214c2.093,1.085,4.185,2.233,6.218,3.412c0.238,0.139,0.32,0.444,0.182,0.684
				C325.529,107.362,325.361,107.451,325.188,107.451z M312.64,100.947c-0.07,0-0.142-0.015-0.209-0.046
				c-2.12-0.976-4.298-1.914-6.471-2.791c-0.256-0.104-0.38-0.395-0.276-0.651c0.104-0.256,0.395-0.377,0.651-0.276
				c2.188,0.883,4.379,1.828,6.514,2.811c0.251,0.115,0.36,0.412,0.245,0.663C313.01,100.84,312.828,100.947,312.64,100.947z
				 M299.53,95.658c-0.055,0-0.11-0.009-0.165-0.028c-2.196-0.768-4.453-1.497-6.707-2.166c-0.265-0.079-0.415-0.357-0.337-0.622
				c0.078-0.264,0.354-0.412,0.622-0.337c2.268,0.674,4.541,1.408,6.752,2.182c0.261,0.091,0.398,0.376,0.307,0.637
				C299.931,95.529,299.737,95.658,299.53,95.658z M285.974,91.632c-0.039,0-0.079-0.005-0.119-0.015
				c-2.27-0.559-4.586-1.069-6.884-1.521c-0.271-0.053-0.448-0.315-0.395-0.586c0.052-0.272,0.32-0.454,0.586-0.394
				c2.315,0.453,4.647,0.968,6.931,1.53c0.269,0.065,0.433,0.337,0.366,0.604C286.404,91.479,286.199,91.632,285.974,91.632z
				 M222.87,89.739c-0.236,0-0.447-0.169-0.491-0.41c-0.049-0.271,0.131-0.532,0.402-0.582c2.305-0.42,4.66-0.793,7.002-1.107
				c0.266-0.051,0.525,0.154,0.562,0.429c0.037,0.273-0.154,0.525-0.429,0.562c-2.326,0.313-4.666,0.684-6.955,1.102
				C222.931,89.736,222.901,89.739,222.87,89.739z M272.105,88.911c-0.024,0-0.049-0.002-0.074-0.006
				c-2.3-0.339-4.651-0.63-6.988-0.864c-0.274-0.027-0.476-0.272-0.447-0.547c0.026-0.274,0.28-0.476,0.547-0.447
				c2.353,0.234,4.719,0.527,7.035,0.869c0.273,0.041,0.462,0.295,0.422,0.568C272.562,88.732,272.348,88.911,272.105,88.911z
				 M236.87,87.86c-0.256,0-0.475-0.196-0.497-0.457c-0.024-0.275,0.18-0.518,0.455-0.541c2.331-0.202,4.711-0.352,7.073-0.447
				c0.246,0.004,0.509,0.204,0.52,0.48c0.011,0.275-0.204,0.508-0.48,0.52c-2.347,0.094-4.71,0.243-7.026,0.443
				C236.9,87.859,236.885,87.86,236.87,87.86z M258.047,87.507c-0.009,0-0.018,0-0.026-0.001c-2.335-0.122-4.703-0.192-7.038-0.208
				c-0.276-0.002-0.499-0.228-0.497-0.503c0.002-0.275,0.226-0.497,0.5-0.497c0.001,0,0.002,0,0.003,0
				c2.351,0.016,4.734,0.086,7.085,0.21c0.275,0.015,0.487,0.25,0.473,0.525C258.533,87.3,258.312,87.507,258.047,87.507z"/>
			<path style="fill:#407BFF;" d="M381.416,164.773c-0.176,0-0.346-0.093-0.438-0.258c-0.563-1.018-1.139-2.028-1.725-3.03
				c-0.14-0.238-0.06-0.545,0.179-0.685c0.24-0.137,0.545-0.059,0.685,0.179c0.591,1.01,1.17,2.026,1.737,3.052
				c0.134,0.241,0.046,0.546-0.195,0.68C381.581,164.753,381.498,164.773,381.416,164.773z"/>
		</g>
		<g>
			<g>
				<path style="fill:#407BFF;" d="M191.588,93.218c0.78,0.817,1.545,2.436,1.987,5.548c-2.465-0.979-4.989-3.834-5.092-5.416
					c-0.022-0.375,0.066-0.876,1.089-0.949h0.191C190.462,92.401,191.065,92.666,191.588,93.218z"/>
				<path style="fill:#407BFF;" d="M197.349,97.721c-0.441-0.758-0.669-1.648-0.787-2.458c-0.376-2.774,0.486-5.489,0.89-5.651
					c0,0.007,0.464,0.287,0.596,3.054C198.137,94.439,198.034,96.426,197.349,97.721z"/>
				<path style="fill:#407BFF;" d="M201.434,118.884h-7.682l0.03-0.257c0.905-8.087,1.126-14.386,0.655-18.852
					c0.317,0.051,0.633,0.074,0.935,0.059c0.677-0.037,1.391-0.265,1.994-0.876c0.773,0.824,1.803,1.303,3.054,1.376
					c0.339,0.022,0.655,0.022,0.964,0C200.064,106.802,199.785,115.161,201.434,118.884z"/>
				<path style="fill:#407BFF;" d="M205.915,95.595c-0.184,0.831-0.942,3.223-3.584,3.863c0.537-2.369,1.214-4.393,1.987-5.681
					c0.485-0.824,0.883-1.104,1.111-1.104c0.037,0,0.066,0.007,0.088,0.015C205.907,92.843,206.261,94.057,205.915,95.595z"/>
				<path style="fill:#407BFF;" d="M217.556,88.634c0,5.35-2.119,11.494-5.57,16.373c-2.391,3.392-4.003,7.255-4.813,11.31
					c-0.294,1.501-1.648,2.568-3.186,2.568h-1.744c-1.759-3.363-1.443-12.09-0.081-18.646c2.634-0.486,4.032-2.517,4.474-4.481
					c0.397-1.788,0.037-3.4-0.846-3.753c-0.471-0.184-1.222-0.096-2.104,1.398c-0.846,1.413-1.575,3.62-2.149,6.181
					c-0.331,0.037-0.684,0.044-1.074,0.015c-1.199-0.074-2.046-0.552-2.641-1.222c0.684-1.06,1.111-2.84,0.964-5.747
					c-0.125-2.561-0.53-3.753-1.31-3.746c-1.111,0.015-1.692,2.789-1.736,4.658c-0.044,2.024,0.361,3.664,1.155,4.834
					c-0.39,0.42-0.905,0.684-1.567,0.721c-0.316,0.015-0.64-0.015-0.979-0.088c-0.39-3.054-1.133-5.158-2.229-6.299
					c-0.721-0.758-1.59-1.104-2.597-1.037c-1.685,0.11-1.796,1.244-1.766,1.722c0.118,1.935,3.032,5.246,5.924,6.188
					c0.434,3.9,0.39,9.868-0.626,18.963l-0.037,0.339h-1.479c-1.538,0-2.892-1.067-3.186-2.568
					c-0.802-4.055-2.421-7.918-4.813-11.31c-3.444-4.879-5.57-11.023-5.57-16.373c0-10.927,8.867-19.794,19.794-19.794
					C208.696,68.84,217.556,77.706,217.556,88.634z"/>
			</g>
			<path style="opacity:0.6;fill:#407BFF;" d="M203.906,123.914h-12.288c-0.441,0-0.798-0.357-0.798-0.798v-2.298
				c0-0.441,0.357-0.798,0.798-0.798h12.288c0.441,0,0.798,0.357,0.798,0.798v2.298
				C204.704,123.556,204.347,123.914,203.906,123.914z"/>
			<path style="opacity:0.3;fill:#407BFF;" d="M203.906,129.128h-12.288c-0.441,0-0.798-0.357-0.798-0.798v-2.298
				c0-0.441,0.357-0.798,0.798-0.798h12.288c0.441,0,0.798,0.357,0.798,0.798v2.298
				C204.704,128.771,204.347,129.128,203.906,129.128z"/>
		</g>
		<g>
			<path style="fill:#407BFF;" d="M364.285,148.423l-35.753-4.525c-2.097-0.265-3.582-2.181-3.317-4.278l3.736-29.514
				c0.265-2.097,2.181-3.582,4.278-3.316l35.754,4.525c2.097,0.265,3.582,2.181,3.317,4.278l-3.736,29.514
				C368.298,147.204,366.383,148.688,364.285,148.423z"/>
			<path style="opacity:0.8;fill:#FFFFFF;" d="M364.963,147.897l-35.753-4.525c-2.097-0.265-3.582-2.181-3.316-4.278l3.736-29.514
				c0.266-2.097,2.181-3.582,4.278-3.316l35.753,4.525c2.097,0.265,3.582,2.181,3.317,4.278l-3.736,29.514
				C368.976,146.678,367.06,148.163,364.963,147.897z"/>
			<path style="fill:#407BFF;" d="M369.66,110.789l-35.754-4.525c-2.097-0.266-4.013,1.219-4.278,3.317l-0.52,4.11
				c-0.068,0.537,0.312,1.028,0.85,1.096l41.403,5.24c0.537,0.068,1.028-0.312,1.096-0.85l0.52-4.11
				C373.242,112.97,371.757,111.054,369.66,110.789z"/>
			
				<rect x="339.351" y="119.999" transform="matrix(0.9921 0.1256 -0.1256 0.9921 18.1088 -41.9757)" style="opacity:0.6;fill:#407BFF;" width="5.301" height="5.301"/>
			
				<rect x="346.918" y="120.957" transform="matrix(0.9921 0.1256 -0.1256 0.9921 18.2894 -42.919)" style="opacity:0.6;fill:#407BFF;" width="5.301" height="5.301"/>
			
				<rect x="354.485" y="121.915" transform="matrix(0.9921 0.1256 -0.1256 0.9921 18.4664 -43.8553)" style="opacity:0.6;fill:#407BFF;" width="5.301" height="5.301"/>
			
				<rect x="362.052" y="122.872" transform="matrix(0.9921 0.1256 -0.1256 0.9921 18.6493 -44.8035)" style="opacity:0.6;fill:#407BFF;" width="5.301" height="5.301"/>
			
				<rect x="330.871" y="126.262" transform="matrix(0.9921 0.1256 -0.1256 0.9921 18.8285 -40.8619)" style="opacity:0.6;fill:#407BFF;" width="5.301" height="5.301"/>
			
				<rect x="338.438" y="127.219" transform="matrix(0.9921 0.1256 -0.1256 0.9921 19.0054 -41.7985)" style="opacity:0.6;fill:#407BFF;" width="5.301" height="5.301"/>
			
				<rect x="346.004" y="128.177" transform="matrix(0.9921 0.1256 -0.1256 0.9921 19.1884 -42.7463)" style="opacity:0.6;fill:#407BFF;" width="5.301" height="5.301"/>
			
				<rect x="353.571" y="129.135" transform="matrix(0.9921 0.1256 -0.1256 0.9921 19.3686 -43.6889)" style="opacity:0.6;fill:#407BFF;" width="5.301" height="5.301"/>
			
				<rect x="361.138" y="130.093" transform="matrix(0.9921 0.1256 -0.1256 0.9921 19.5454 -44.6251)" style="opacity:0.6;fill:#407BFF;" width="5.301" height="5.301"/>
			
				<rect x="329.957" y="133.482" transform="matrix(0.9921 0.1256 -0.1256 0.9921 19.7279 -40.69)" style="opacity:0.6;fill:#407BFF;" width="5.301" height="5.301"/>
			
				<rect x="337.524" y="134.439" transform="matrix(0.9921 0.1256 -0.1256 0.9921 19.9076 -41.6318)" style="opacity:0.6;fill:#407BFF;" width="5.301" height="5.301"/>
			
				<rect x="345.09" y="135.397" transform="matrix(0.9921 0.1256 -0.1256 0.9921 20.0844 -42.5683)" style="opacity:0.6;fill:#407BFF;" width="5.301" height="5.301"/>
			<path style="fill:#FFFFFF;" d="M367.159,114.983L367.159,114.983c-0.619-0.078-1.088-0.652-1.041-1.276l0.249-3.33
				c0.047-0.623,0.592-1.069,1.211-0.991l0,0c0.619,0.078,1.088,0.652,1.041,1.276l-0.249,3.33
				C368.323,114.616,367.778,115.062,367.159,114.983z"/>
			<path style="fill:#FFFFFF;" d="M361.142,114.222L361.142,114.222c-0.619-0.078-1.088-0.653-1.041-1.276l0.249-3.33
				c0.047-0.623,0.592-1.069,1.211-0.991l0,0c0.619,0.078,1.088,0.652,1.041,1.276l-0.249,3.33
				C362.306,113.854,361.762,114.3,361.142,114.222z"/>
			<path style="fill:#FFFFFF;" d="M355.125,113.46L355.125,113.46c-0.619-0.078-1.088-0.652-1.041-1.276l0.249-3.33
				c0.047-0.623,0.592-1.069,1.211-0.991l0,0c0.619,0.078,1.088,0.653,1.041,1.276l-0.249,3.33
				C356.29,113.093,355.745,113.539,355.125,113.46z"/>
			<path style="fill:#FFFFFF;" d="M349.109,112.699L349.109,112.699c-0.619-0.078-1.088-0.652-1.041-1.276l0.249-3.33
				c0.047-0.623,0.592-1.069,1.211-0.991l0,0c0.619,0.078,1.088,0.652,1.041,1.276l-0.249,3.33
				C350.273,112.331,349.728,112.777,349.109,112.699z"/>
			<path style="fill:#FFFFFF;" d="M343.092,111.937L343.092,111.937c-0.619-0.078-1.088-0.653-1.041-1.276l0.249-3.33
				c0.047-0.623,0.592-1.069,1.211-0.991h0c0.619,0.078,1.088,0.653,1.041,1.276l-0.249,3.33
				C344.256,111.57,343.711,112.016,343.092,111.937z"/>
			<path style="fill:#FFFFFF;" d="M337.075,111.176L337.075,111.176c-0.619-0.078-1.088-0.652-1.041-1.276l0.249-3.33
				c0.047-0.623,0.592-1.069,1.211-0.991l0,0c0.619,0.078,1.088,0.652,1.041,1.276l-0.249,3.33
				C338.24,110.808,337.695,111.254,337.075,111.176z"/>
		</g>
		<g>
			<g>
				<g>
					<polygon style="fill:#407BFF;" points="404.767,227.22 401.747,226.758 401.933,225.551 403.743,225.827 404.022,224.015 
						405.229,224.2 					"/>
					<path style="fill:#407BFF;" d="M397.274,226.073l-4.474-0.684l0.186-1.207l4.474,0.685L397.274,226.073z M388.326,224.705
						l-4.474-0.685l0.185-1.207l4.474,0.684L388.326,224.705z M379.379,223.336l-4.473-0.684l0.185-1.207l4.473,0.684
						L379.379,223.336z M370.432,221.968l-4.474-0.685l0.186-1.207l4.474,0.684L370.432,221.968z"/>
					<polygon style="fill:#407BFF;" points="361.486,220.6 358.465,220.139 358.928,217.118 360.135,217.304 359.858,219.115 
						361.669,219.393 					"/>
					<path style="fill:#407BFF;" d="M360.819,212.83l-1.207-0.186l0.685-4.474l1.207,0.186L360.819,212.83z M362.187,203.883
						l-1.207-0.186l0.685-4.474l1.207,0.186L362.187,203.883z M363.556,194.935l-1.207-0.185l0.684-4.473l1.207,0.185
						L363.556,194.935z M364.924,185.988l-1.207-0.186l0.685-4.474l1.207,0.186L364.924,185.988z"/>
					<polygon style="fill:#407BFF;" points="366.293,177.041 365.086,176.855 365.547,173.837 368.567,174.299 368.383,175.506 
						366.57,175.23 					"/>
					<path style="fill:#407BFF;" d="M404.171,180.98l-4.474-0.685l0.185-1.207l4.474,0.685L404.171,180.98z M395.224,179.611
						l-4.473-0.684l0.185-1.207l4.473,0.684L395.224,179.611z M386.277,178.243l-4.474-0.685l0.185-1.207l4.474,0.685
						L386.277,178.243z M377.329,176.875l-4.474-0.685l0.185-1.207l4.474,0.685L377.329,176.875z"/>
					<polygon style="fill:#407BFF;" points="411.387,183.938 410.18,183.754 410.456,181.941 408.645,181.664 408.828,180.457 
						411.849,180.918 					"/>
					<path style="fill:#407BFF;" d="M405.912,219.727l-1.207-0.185l0.685-4.474l1.207,0.186L405.912,219.727z M407.281,210.779
						l-1.207-0.185l0.684-4.473l1.207,0.184L407.281,210.779z M408.65,201.833l-1.207-0.185l0.685-4.474l1.207,0.186L408.65,201.833
						z M410.018,192.886l-1.207-0.186l0.685-4.474l1.207,0.186L410.018,192.886z"/>
				</g>
				<g>
					
						<rect x="363.479" y="171.953" transform="matrix(0.9885 0.1512 -0.1512 0.9885 30.5947 -53.3368)" style="fill:#FFFFFF;" width="5.159" height="5.159"/>
					<path style="fill:#407BFF;" d="M368.731,178.169l-6.308-0.965l0.964-6.308l6.309,0.965L368.731,178.169z M363.816,176.181
						l3.892,0.596l0.596-3.892l-3.893-0.596L363.816,176.181z"/>
				</g>
				<g>
					
						<rect x="408.573" y="178.85" transform="matrix(0.9885 0.1512 -0.1512 0.9885 32.1558 -60.0751)" style="fill:#FFFFFF;" width="5.159" height="5.159"/>
					<path style="fill:#407BFF;" d="M413.824,185.066l-6.308-0.965l0.964-6.308l6.309,0.965L413.824,185.066z M408.909,183.078
						l3.892,0.596l0.596-3.892l-3.893-0.596L408.909,183.078z"/>
				</g>
				<g>
					
						<rect x="356.582" y="217.047" transform="matrix(0.9885 0.1512 -0.1512 0.9885 37.3329 -51.7757)" style="fill:#FFFFFF;" width="5.159" height="5.159"/>
					<path style="fill:#407BFF;" d="M361.833,223.263l-6.308-0.965l0.965-6.308l6.308,0.965L361.833,223.263z M356.918,221.274
						l3.892,0.596l0.596-3.892l-3.892-0.596L356.918,221.274z"/>
				</g>
				<g>
					
						<rect x="401.676" y="223.944" transform="matrix(0.9885 0.1512 -0.1512 0.9885 38.8995 -58.521)" style="fill:#FFFFFF;" width="5.159" height="5.159"/>
					<path style="fill:#407BFF;" d="M406.927,230.16l-6.308-0.965l0.965-6.308l6.308,0.965L406.927,230.16z M402.012,228.172
						l3.892,0.596l0.596-3.892l-3.892-0.596L402.012,228.172z"/>
				</g>
				
					<rect x="360.031" y="194.5" transform="matrix(0.9885 0.1512 -0.1512 0.9885 33.9686 -52.5626)" style="fill:#407BFF;" width="5.159" height="5.159"/>
				
					<rect x="405.124" y="201.397" transform="matrix(0.9885 0.1512 -0.1512 0.9885 35.5249 -59.2945)" style="fill:#407BFF;" width="5.159" height="5.159"/>
				
					<rect x="386.026" y="175.402" transform="matrix(-0.1512 0.9885 -0.9885 -0.1512 623.293 -179.2492)" style="fill:#407BFF;" width="5.159" height="5.159"/>
				
					<rect x="379.129" y="220.496" transform="matrix(-0.1512 0.9885 -0.9885 -0.1512 659.9285 -120.5199)" style="fill:#407BFF;" width="5.159" height="5.159"/>
			</g>
			<g>
				<path style="fill:#407BFF;" d="M385.382,194.311l-12.154,8.929c-1.857,1.364-2.455,3.793-1.594,5.826l-1.064,0.782
					c-0.501,0.368-0.609,1.072-0.241,1.573c0.368,0.501,1.073,0.609,1.573,0.241l1.064-0.782c1.683,1.43,4.179,1.585,6.036,0.221
					l12.154-8.929L385.382,194.311z"/>
				<path style="opacity:0.6;fill:#FFFFFF;" d="M385.382,194.311l-12.154,8.929c-1.857,1.364-2.455,3.793-1.594,5.826l-1.064,0.782
					c-0.501,0.368-0.609,1.072-0.241,1.573c0.368,0.501,1.073,0.609,1.573,0.241l1.064-0.782c1.683,1.43,4.179,1.585,6.036,0.221
					l12.154-8.929L385.382,194.311z"/>
				<path style="fill:#407BFF;" d="M393.387,201.278l-0.355-0.484l4.777-3.509c2.171-1.595,2.637-4.647,1.043-6.818
					c-1.595-2.17-4.647-2.637-6.818-1.042l-4.777,3.509l-0.356-0.484c-0.611-0.831-1.791-1.012-2.622-0.401
					c-0.831,0.611-1.012,1.791-0.401,2.622l6.486,8.828c0.611,0.831,1.791,1.012,2.622,0.401
					C393.817,203.29,393.997,202.109,393.387,201.278z"/>
			</g>
		</g>
		<g>
			<g>
				<g>
					<path style="fill:#407BFF;" d="M143.7,171.869L143.7,171.869c-1.736,2.303-5.011,2.762-7.314,1.025l-38.625-29.127l6.288-8.339
						l38.625,29.127C144.977,166.292,145.436,169.567,143.7,171.869z"/>
					<path style="opacity:0.8;fill:#FFFFFF;" d="M143.7,171.869L143.7,171.869c-1.736,2.303-5.011,2.762-7.314,1.025l-38.625-29.127
						l6.288-8.339l38.625,29.127C144.977,166.292,145.436,169.567,143.7,171.869z"/>
				</g>
				<g>
					
						<rect x="100.851" y="139.773" transform="matrix(0.6021 -0.7984 0.7984 0.6021 -72.363 141.7893)" style="fill:#407BFF;" width="10.444" height="7.444"/>
					
						<rect x="100.851" y="139.773" transform="matrix(0.6021 -0.7984 0.7984 0.6021 -72.363 141.7893)" style="opacity:0.3;fill:#FFFFFF;" width="10.444" height="7.444"/>
				</g>
				<g>
					
						<rect x="107.64" y="144.893" transform="matrix(0.6021 -0.7984 0.7984 0.6021 -73.7494 149.2478)" style="opacity:0.8;fill:#407BFF;" width="10.444" height="7.444"/>
					
						<rect x="107.64" y="144.893" transform="matrix(0.6021 -0.7984 0.7984 0.6021 -73.7494 149.2478)" style="opacity:0.3;fill:#FFFFFF;" width="10.444" height="7.444"/>
				</g>
				<g>
					
						<rect x="114.43" y="150.013" transform="matrix(0.6021 -0.7984 0.7984 0.6021 -75.1358 156.7059)" style="opacity:0.6;fill:#407BFF;" width="10.444" height="7.444"/>
					
						<rect x="114.43" y="150.013" transform="matrix(0.6021 -0.7984 0.7984 0.6021 -75.1358 156.7059)" style="opacity:0.3;fill:#FFFFFF;" width="10.444" height="7.444"/>
				</g>
				<g>
					
						<rect x="121.22" y="155.133" transform="matrix(0.6021 -0.7984 0.7984 0.6021 -76.5221 164.1647)" style="opacity:0.4;fill:#407BFF;" width="10.444" height="7.444"/>
					
						<rect x="121.22" y="155.133" transform="matrix(0.6021 -0.7984 0.7984 0.6021 -76.5221 164.1647)" style="opacity:0.3;fill:#FFFFFF;" width="10.444" height="7.444"/>
				</g>
			</g>
			<g>
				<g>
					<path style="fill:#407BFF;" d="M142.689,164.723L142.689,164.723c-2.419,1.57-5.653,0.881-7.223-1.538l-26.334-40.581
						l8.761-5.685l26.334,40.581C145.797,159.919,145.109,163.153,142.689,164.723z"/>
					<path style="opacity:0.7;fill:#FFFFFF;" d="M142.689,164.723L142.689,164.723c-2.419,1.57-5.653,0.881-7.223-1.538
						l-26.334-40.581l8.761-5.685l26.334,40.581C145.797,159.919,145.109,163.153,142.689,164.723z"/>
				</g>
				
					<rect x="111.814" y="121.469" transform="matrix(0.8389 -0.5443 0.5443 0.8389 -49.2882 83.8817)" style="fill:#407BFF;" width="10.444" height="7.444"/>
				
					<rect x="116.443" y="128.602" transform="matrix(0.8389 -0.5443 0.5443 0.8389 -52.4254 87.5511)" style="opacity:0.8;fill:#407BFF;" width="10.444" height="7.444"/>
				
					<rect x="121.072" y="135.736" transform="matrix(0.8389 -0.5443 0.5443 0.8389 -55.5624 91.2195)" style="opacity:0.6;fill:#407BFF;" width="10.444" height="7.444"/>
				
					<rect x="125.701" y="142.87" transform="matrix(0.8389 -0.5443 0.5443 0.8389 -58.6996 94.8888)" style="opacity:0.4;fill:#407BFF;" width="10.444" height="7.444"/>
			</g>
			<g>
				<g>
					<path style="fill:#407BFF;" d="M145.653,162.276L145.653,162.276c-2.81,0.648-5.614-1.105-6.262-3.916l-10.866-47.14
						l10.177-2.346l10.866,47.14C150.217,158.825,148.463,161.628,145.653,162.276z"/>
					<path style="opacity:0.6;fill:#FFFFFF;" d="M145.653,162.276L145.653,162.276c-2.81,0.648-5.614-1.105-6.262-3.916
						l-10.866-47.14l10.177-2.346l10.866,47.14C150.217,158.825,148.463,161.628,145.653,162.276z"/>
				</g>
				<g>
					
						<rect x="129.845" y="112.632" transform="matrix(0.9744 -0.2246 0.2246 0.9744 -22.6839 33.3119)" style="fill:#407BFF;" width="10.444" height="7.444"/>
					
						<rect x="129.845" y="112.632" transform="matrix(0.9744 -0.2246 0.2246 0.9744 -22.6839 33.3119)" style="opacity:0.4;fill:#263238;" width="10.444" height="7.444"/>
				</g>
				<g>
					
						<rect x="131.756" y="120.919" transform="matrix(0.9744 -0.2246 0.2246 0.9744 -24.4964 33.9527)" style="opacity:0.8;fill:#407BFF;" width="10.444" height="7.444"/>
					
						<rect x="131.756" y="120.919" transform="matrix(0.9744 -0.2246 0.2246 0.9744 -24.4964 33.9527)" style="opacity:0.4;fill:#263238;" width="10.444" height="7.444"/>
				</g>
				<g>
					
						<rect x="133.666" y="129.205" transform="matrix(0.9744 -0.2246 0.2246 0.9744 -26.308 34.5919)" style="opacity:0.6;fill:#407BFF;" width="10.444" height="7.444"/>
					
						<rect x="133.666" y="129.205" transform="matrix(0.9744 -0.2246 0.2246 0.9744 -26.308 34.5919)" style="opacity:0.4;fill:#263238;" width="10.444" height="7.444"/>
				</g>
				<g>
					
						<rect x="135.576" y="137.492" transform="matrix(0.9744 -0.2246 0.2246 0.9744 -28.1214 35.2343)" style="opacity:0.4;fill:#407BFF;" width="10.444" height="7.444"/>
					
						<rect x="135.576" y="137.492" transform="matrix(0.9744 -0.2246 0.2246 0.9744 -28.1214 35.2343)" style="opacity:0.4;fill:#263238;" width="10.444" height="7.444"/>
				</g>
			</g>
		</g>
		<g>
			<path style="fill:#263238;" d="M88.372,219.335l-4.486,0.487c-0.847,0.092-1.465,0.86-1.373,1.707l0,0
				c0.092,0.847,0.86,1.465,1.707,1.373l4.486-0.487c0.847-0.092,1.465-0.86,1.373-1.707l0,0
				C89.988,219.861,89.22,219.243,88.372,219.335z"/>
			<path style="fill:#407BFF;" d="M107.953,215.134l-11.257,1.222c-0.597,0.065-1.074,0.524-1.162,1.118l-0.673,4.552l16.101-1.748
				l-1.634-4.302C109.114,215.415,108.549,215.069,107.953,215.134z"/>
			<path style="fill:#407BFF;" d="M117.028,246.568l-33.563,3.644c-2.643,0.287-5.04-1.641-5.327-4.283l-2.024-18.648
				c-0.287-2.643,1.641-5.04,4.283-5.327l33.563-3.644c2.643-0.287,5.04,1.641,5.327,4.284l2.024,18.648
				C121.599,243.884,119.671,246.281,117.028,246.568z"/>
			
				<rect x="81.014" y="227.531" transform="matrix(0.9942 -0.1079 0.1079 0.9942 -24.9565 10.4956)" style="opacity:0.1;" width="6.941" height="16.548"/>
			<g style="opacity:0.8;">
				<path style="fill:#FFFFFF;" d="M113.961,218.31l-33.563,3.644c-2.643,0.287-4.57,2.684-4.283,5.327l43.173-4.687
					C119.001,219.95,116.603,218.023,113.961,218.31z"/>
				<path style="fill:#FFFFFF;" d="M83.465,250.211l33.563-3.644c2.643-0.287,4.571-2.684,4.284-5.327l-43.173,4.687
					C78.426,248.571,80.822,250.498,83.465,250.211z"/>
			</g>
			<path style="fill:#263238;" d="M115.025,232.49c0.626,5.765-3.54,10.946-9.306,11.572c-5.765,0.626-10.946-3.54-11.572-9.305
				c-0.626-5.765,3.54-10.946,9.305-11.572C109.218,222.558,114.399,226.725,115.025,232.49z"/>
			<path style="opacity:0.4;fill:#FFFFFF;" d="M114.077,232.593c0.569,5.242-3.219,9.952-8.461,10.521
				c-5.242,0.569-9.952-3.219-10.521-8.461c-0.569-5.242,3.219-9.952,8.461-10.521C108.798,223.563,113.508,227.351,114.077,232.593
				z"/>
			<path style="fill:#263238;" d="M111.371,232.886c0.407,3.747-2.301,7.114-6.048,7.521c-3.747,0.407-7.115-2.301-7.521-6.048
				c-0.407-3.747,2.301-7.115,6.048-7.521C107.597,226.432,110.964,229.139,111.371,232.886z"/>
			<path style="fill:#FFFFFF;" d="M108.285,230.726c0.09,0.828-0.509,1.573-1.337,1.663c-0.828,0.09-1.573-0.509-1.663-1.337
				c-0.09-0.828,0.509-1.573,1.337-1.663C107.45,229.299,108.195,229.898,108.285,230.726z"/>
			<path style="fill:#FFFFFF;" d="M109.981,227.996c0.057,0.526-0.323,0.999-0.849,1.056s-0.999-0.323-1.056-0.849
				c-0.057-0.526,0.323-0.999,0.849-1.056C109.451,227.089,109.924,227.47,109.981,227.996z"/>
		</g>
	</g>
</g>
</svg>
