<svg width="80" height="34" viewBox="0 0 80 34" version="1.1" xmlns="http://www.w3.org/2000/svg" xmlns:xlink="http://www.w3.org/1999/xlink">
<title>Page 1</title>
<desc>Created using Figma</desc>
<g id="Canvas" transform="translate(-12939 -451)">
<g id="Page 1">
<g id="Fill 1">
<use xlink:href="#path0_fill" transform="translate(13002.5 458.163)" fill="#6875DE"/>
</g>
<g id="Fill 3">
<use xlink:href="#path1_fill" transform="translate(12984.4 458.163)" fill="#6875DE"/>
</g>
<g id="Fill 5">
<use xlink:href="#path2_fill" transform="translate(12976.7 451)" fill="#6875DE"/>
</g>
<mask id="mask0_outline" mask-type="alpha">
<g id="Clip 8">
<use xlink:href="#path3_fill" transform="translate(12939 451)" fill="#FFFFFF"/>
</g>
</mask>
<g id="Fill 7" mask="url(#mask0_outline)">
<use xlink:href="#path4_fill" transform="translate(12976.7 458.548)" fill="#6875DE"/>
</g>
<g id="Fill 9" mask="url(#mask0_outline)">
<use xlink:href="#path5_fill" transform="translate(12965.6 458.314)" fill="#6875DE"/>
</g>
<g id="Fill 10" mask="url(#mask0_outline)">
<use xlink:href="#path6_fill" transform="translate(12954.2 453.629)" fill="#6875DE"/>
</g>
<g id="Fill 11" mask="url(#mask0_outline)">
<use xlink:href="#path7_fill" transform="translate(12939 458.163)" fill="#6875DE"/>
</g>
</g>
</g>
<defs>
<path id="path0_fill" fill-rule="evenodd" d="M 5.5332 8.22799L 11.2668 8.22799C 11.2668 5.66665 9.82231 4.60132 8.46654 4.60132C 7.06654 4.60132 5.5332 5.66665 5.5332 8.22799ZM 16.5109 10.3813C 16.5109 10.9253 16.4664 12.104 16.4664 12.3987L 5.6 12.3987C 5.84422 15.0733 7.75533 15.844 9.91089 15.844C 12.1111 15.844 13.8442 15.368 15.3553 14.5973L 15.3553 19.1307C 13.8442 19.992 11.8442 20.604 9.19978 20.604C 3.77778 20.604 0 17.1587 0 10.336C 0 4.57867 3.19978 0 8.48889 0C 13.7553 0 16.5109 4.57867 16.5109 10.3813Z"/>
<path id="path1_fill" fill-rule="evenodd" d="M 8.19989 15.6173C 6.889 15.6173 6.11122 15.1413 5.57766 14.552L 5.55566 6.14268C 6.13322 5.48535 6.93344 5.03201 8.19989 5.03201C 10.2223 5.03201 11.6221 7.34401 11.6221 10.3133C 11.6221 13.3507 10.2443 15.6173 8.19989 15.6173L 8.19989 15.6173ZM 9.53311 0C 7.35533 0 5.95533 1.04267 5.17756 1.768L 4.88889 0.362667L 0 0.362667L 0 26.792L 5.55556 25.5907L 5.57756 19.176C 6.37778 19.7653 7.55556 20.604 9.51089 20.604C 13.4889 20.604 17.1111 17.34 17.1111 10.1547C 17.0887 3.58133 13.422 0 9.53311 0L 9.53311 0Z"/>
<path id="path2_fill" fill-rule="evenodd" d="M 0 5.82533L 5.578 4.60133L 5.578 0L 0 1.20133L 0 5.82533Z"/>
<path id="path3_fill" fill-rule="evenodd" d="M 0 33.9547L 80 33.9547L 80 0L 0 0L 0 33.9547Z"/>
<path id="path4_fill" fill-rule="evenodd" d="M 0 19.8333L 5.578 19.8333L 5.578 0L 0 0L 0 19.8333Z"/>
<path id="path5_fill" fill-rule="evenodd" d="M 5.15556 1.91163L 4.8 0.234295L 0 0.234295L 0 20.0676L 5.55556 20.0676L 5.55556 6.6263C 6.86667 4.88096 9.08889 5.1983 9.77778 5.44763L 9.77778 0.234295C 9.06667 -0.0377047 6.46667 -0.536371 5.15556 1.91163"/>
<path id="path6_fill" fill-rule="evenodd" d="M 5.44444 0L 0.0222222 1.17867L 0 19.3347C 0 22.6893 2.46667 25.16 5.75556 25.16C 7.57778 25.16 8.91111 24.82 9.64444 24.412L 9.64444 19.8107C 8.93333 20.1053 5.42222 21.148 5.42222 17.7933L 5.42222 9.74667L 9.64444 9.74667L 9.64444 4.91867L 5.42222 4.91867L 5.44444 0Z"/>
<path id="path7_fill" fill-rule="evenodd" d="M 5.62222 6.14267C 5.62222 5.25867 6.33333 4.91867 7.51111 4.91867C 9.2 4.91867 11.3333 5.44 13.0222 6.36933L 13.0222 1.04267C 11.1778 0.294667 9.35556 0 7.51111 0C 3 0 0 2.40267 0 6.41467C 0 12.6707 8.44444 11.6731 8.44444 14.3707C 8.44444 15.4131 7.55556 15.7531 6.31111 15.7531C 4.46667 15.7531 2.11111 14.9827 0.244444 13.9398L 0.244444 19.3347C 2.31111 20.2413 4.4 20.6264 6.31111 20.6264C 10.9333 20.6264 14.1111 18.292 14.1111 14.2347C 14.0889 7.48 5.62222 8.68133 5.62222 6.14267"/>
</defs>
</svg>
